<svg id="Capa_1" data-name="Capa 1" xmlns="http://www.w3.org/2000/svg" viewBox="0 0 506.86 466.29"><defs><style>.cls-1{fill:#4180c2;}.cls-2{fill:#fdfcfc;}.cls-3{fill:#272522;}.cls-4{fill:#3a76b0;}.cls-5{fill:#4d8fcd;}.cls-6{fill:#2561a0;}.cls-7{fill:#3e7bba;}.cls-8{fill:#619fd6;}.cls-9{fill:#fcd726;}.cls-10{fill:#d4af7e;}.cls-11{fill:#ce9e2d;}.cls-12{fill:#dcd6d3;}.cls-13{fill:#f1e297;}.cls-14{fill:#4987c7;}</style></defs><path class="cls-1" d="M235,149.87" transform="translate(-42.7 -156.59)"/><path class="cls-2" d="M35.72,304" transform="translate(-42.7 -156.59)"/><path class="cls-2" d="M164.08,622.75l4.08,0h44c.45,0,.91.12,1.37.12l201.06,0,7.86-.07" transform="translate(-42.7 -156.59)"/><path class="cls-3" d="M364.89,243.84c.54,2.59-1,4.82-1.26,7.27-1.46,1.66-.74,3.1.38,4.6,7,9.36,7.95,23,.86,32.46-3.14,4.19-4.68,7-2.12,11.87,1.22,2.33.67,5.67,0,8.49-.49,2.17.39,3.37,2.09,4.57a57.87,57.87,0,0,1,8.88,6.94c2.56,2.66,4.84,2.59,7.95,1.34,6.06-2.43,10.11-.38,13.19,5.34,2.19,4.09.6,7.62-1.2,10.72-3.87,6.68-7.26,13.34-8.78,21.07-1.16,6-7.81,9.59-14,8.31-3.05-.63-4.88.12-6.68,2.53A86.22,86.22,0,0,1,341.61,390c-1.33.86-2.21,1.82-2.11,3.59.14,2.63.06,5.27.05,7.9,0,1.06.3,1.81,1.5,1.87,4,.85,7.88-.45,11.82-.74a2.84,2.84,0,0,0,1.92-1.31c2.22-4.11,6.08-6.8,8.87-10.4,2.42-3.11,5.25-4.11,9-2.73,1.65.61,3.36,1,5.21-.26,13.23-9.14,26-18.95,38.46-29.08A469.87,469.87,0,0,0,455,324.05c1.62-1.64,4.49-3.09,4-6.31a41.5,41.5,0,0,1,1.65-19c1.5-4.84,3.49-9.6,8.05-12.36a9.74,9.74,0,0,0,4.93-6.18c3.05-3.94,5.35-8.48,9.62-11.46a18.25,18.25,0,0,1,4.71-2.55,2.86,2.86,0,0,0,2.14-.52l1.29-.18c3,0,6.13-.28,9.11.7,2.14,1,4.38,1.8,5.94,3.7.43.56.67,1.32,1.53,1.39l0,0c.38,1.39,1.24,2.41,2.71,1.92,3.09-1,6.09-.35,9.12.09,6.53,2.85,10.81,7.87,13.33,14.36.89,2.3,2.54,3.2,4.44,4.33,7.67,4.57,12.14,11.17,12,20.38,0,2.17-.11,4.35-.18,6.52,0,.32-.07.64-.1,1s-.25.69-.37,1C545,334.2,536.74,344.18,525,351.45c-4.58,2.83-7.2,7.55-10.47,11.59-6.28,7.79-12.21,15.86-18.55,23.6q-13.22,16.13-27.15,31.63-14.88,16.51-30.47,32.34c-1,1-2.43,1.76-2.11,3.64,1.33,7.93-3.5,12.81-8.7,17.52-12.1,11-26.21,18.09-41.92,22.28-2.44.65-4.89,1.12-7.34,1.68-1.13.25-2.87.13-3.22,1.5s1.21,2,2.14,2.81c3.14,2.63,6.29,5.24,9.23,8.1a137.37,137.37,0,0,1,31.16,46.52,131.69,131.69,0,0,1,9.1,35.41,85,85,0,0,1-.09,17.54c-.65,2.78-1.57,5.52-1.24,8.44-.41,2.49-1.81,4.54-2.93,6.72l-7.87.07c.22-2.15.52-4.3.63-6.45.3-5.69-2.58-7.91-8.15-6.33a126.41,126.41,0,0,1-14.77,3.28c-14.2,2.26-28.54,2.85-42.87,3.18-19.06.44-38.11.18-57.15-1-18.44-1.13-36.8-2.93-55.07-5.59-10-1.45-19.89-3.19-29.84-4.79-2.59-.67-4.57,1.05-6.75,1.82-9.53,3.38-18.76,7.6-28.51,10.31-3.14.87-5,2-3.92,5.49l-4.08,0a3.08,3.08,0,0,0-3.13-3c-3-.1-4-1.89-4.71-4.51a23.36,23.36,0,0,1-.29-7.86,98.88,98.88,0,0,1,3.38-17.86c4.56-16.3,12.43-30.93,22.44-44.44,7.75-10.45,15.89-20.62,23.8-31a99.46,99.46,0,0,0,6.27-9c.95-1.58,1.92-3.59-1.44-4.28-15.14-3.08-28.25-10.15-40.08-20-4.45-3.7-6.34-7.83-5.5-13.38a4.22,4.22,0,0,0-1.43-4q-9.1-8.49-18.16-17c-3.12-2.77-5.49-6.29-8.89-8.77L123,423.38l-10.28-10.95-1-1.49-1.2-1.24a3.51,3.51,0,0,0-2-2.3v-.1l-4.69-5.39,0-.06c-1.16-1.55-2.28-3.13-3.49-4.63-8-10-16.15-19.88-23.75-30.21-3.78-5.14-7-10.8-11.91-15a66.91,66.91,0,0,1-10.11-10.7c-7.75-10.3-13.55-21.2-11.31-34.84,1.29-7.79,4.67-14.24,12.38-16.43,5.55-1.57,6.33-5.67,8-9.67a.31.31,0,0,0,.39-.18c.84-.12,1.07-.77,1.23-1.47a.24.24,0,0,0,.24-.3,3.2,3.2,0,0,0,1.9-1.72A1.85,1.85,0,0,0,69,275.45c4.83-3.77,10.19-5.51,16.33-4.21,1.43,1.09,2.58.94,3.38-.75l.1-.11.69-.56h0a.91.91,0,0,0,1.1-.74.46.46,0,0,0,.38-.42l4-2.34,2.7-.94c4.25-.72,8.41,0,12.56.79a.63.63,0,0,0,.63.13l3.43,2.5.87.35c.73,1.5,2.14,2.37,3.24,3.54l1.3,1.6.34.49,3.85,5.65.16.06c1.42,3.29,1.6,7.16,4.6,9.7a20.58,20.58,0,0,1,6.9,11.35c1.86,7.05,1.42,14.29,2.12,21.44.13,1.36.1,2.6,1.18,3.76,4.17,4.5,8,9.34,12.46,13.54l.88.64,0,0c1.7,1.81,3.34,3.69,5.11,5.43A440.54,440.54,0,0,0,194,378.16c5.7,4.49,11.09,9.44,17.49,13,1.43,1.47,3,.74,4.43.11a6.81,6.81,0,0,1,6.85.56c4.68,2.89,9.24,5.91,12.91,10.09.87,1,1.9,2.31,3.48,1.59,1.4-.64,1.66-2.12,1.7-3.53.26-8.83.76-17.67.67-26.51a147.44,147.44,0,0,0-1.09-19.92c-.31-2.08-.76-3.57-3.75-3.71-8.08-.4-15-7.61-15.65-15.68-.66-7.82,2.86-13.39,10.72-17,1.07-.5,2.82-.56,2.44-2.33-.74-3.54-.51-7.31-2.84-10.5-2.22-3-4.09-6.31-6.15-9.46-.39-.6-.6-1.59-1.79-1.17a36.25,36.25,0,0,0,.09,7.86c.44,3.53.73,7.08,1,10.62.09,1.09-.16,2.17-1.53,2.26-1.1.07-1.64-.76-1.91-1.68a20.58,20.58,0,0,1-.41-2.37c-1.09-6.83-.93-13.74-1.21-20.62-.07-1.85-1-4.3,1.36-5.16,2.62-.95,3.26,1.89,4.58,3.3a8,8,0,0,1,.87,1.48,15.77,15.77,0,0,0,3.43,4.66,1.64,1.64,0,0,0,.54-1.77c-1.47-11.28-5-22.09-7.7-33.08a115.26,115.26,0,0,1-3.66-26.11,54.88,54.88,0,0,1,5.83-24.48c2.54-4.46,4.91-9.06,8.25-13a12.62,12.62,0,0,0,3.09-9.38c.25-1.84.51-3.67.76-5.51l3-7.52a.53.53,0,0,0,.37-.46l.55-.83c2.57-4,6.47-6.69,10-9.68,6.84-3.11,13.88-4.62,21.33-2.56a3.7,3.7,0,0,0,2.64-.27c9.5-4.27,18.92-3.5,28.29.5a38.25,38.25,0,0,1,13.38,14.48,5,5,0,0,0,2.94,2.2c12.25,4.31,20.79,13,27.21,23.86a66.3,66.3,0,0,1,9.49,30.13c.05.84.14,1.78.87,2.15m42,171.24.71.28c.48.48.93,1,1.44,1.43a132.17,132.17,0,0,1,21.77,23.32c3.26,4.59,6.12,9.46,9.17,14.2.25.75.45,1.52.76,2.24,1.89,4.46,1.87,4.43,5.12,1.12,10.49-10.66,20.62-21.65,30.6-32.8,14.05-15.7,27.4-32,40.4-48.56,5.2-6.63,9.17-14.42,17.28-18.35a22.62,22.62,0,0,0,4.6-3.42,44.4,44.4,0,0,0,13.59-20.57c1.78-5.45,3.12-11.28.23-17,.56-2.38-.73-4.67-4.09-7.28-3.1-4.69-7.79-6.22-12.93-4.5a31.82,31.82,0,0,0-5.78,2.8c-7.76,4.46-11.68,11.4-12.41,20.14a6.3,6.3,0,0,0,2.65,5.84c5.89,5.75,13.15,5.78,18.64,1.12,1-.84,3.05-2,1.94-3.53-.84-1.14-2,.82-3.13,1.22-.22.08-.39.29-.6.32-1.21.22-2.85.93-3.49-.21-.81-1.44,1-2.26,1.93-2.75,3.78-1.88,6.53-4.83,9-8.13.69-.93,1.5-1.61,2.57-1.11,1.38.63.65,1.73.17,2.6a4.47,4.47,0,0,0-.78,2.23c.11,8.8-6.74,14.41-13.9,15.74-6.67,1.24-14.49-2.31-17.09-8.25-.84-1.94-1.84-1.68-3.14-.87a12.28,12.28,0,0,1-8.82,1.92,3.34,3.34,0,0,0-3.27,1.4c-2.79,3-5.06,6.31-5,10.73,0,1.25-.45,2.76-2.05,2.65s-1.24-1.65-1.3-2.74a15.17,15.17,0,0,1,3.92-10.69c1.86-2.19,1.92-3.31-.53-4.62a14.79,14.79,0,0,1-1.69-1.15c-3.94-2.92-6.68-6.83-9-11-.53-1-1-2.4.16-3.14,1.47-1,1.91.74,2.52,1.52,1.68,2.13,2.82,4.68,4.88,6.53a1.08,1.08,0,0,0,1.2.8l-.15,0c1.11,2.39,3.34,3.55,5.44,4.79,3.9,2.32,8.14,2.63,12,.28,3.33-2.06,4.74-5.54,4.31-9.62a16.47,16.47,0,0,0-3.18-8.05c-4-6.09-9.09-10.95-16.19-13.31a2.18,2.18,0,0,0-3-.27l-3.89-.29c-8.79-1.14-12.75,3.75-15.18,9.72a43.42,43.42,0,0,0-2.84,19.87c.22,2.81-.13,5.4-2.41,7.55-12.65,12-25.27,24-38.86,35-6.63,5.36-13.18,10.82-20,15.9-6,4.45-11.61,9.42-17.92,13.47-3.16,2-3.1,2.36,0,4.22a109.08,109.08,0,0,1,13.79,9.48.88.88,0,0,0,.85.74l.91.85C398.68,404,398.76,404,398.92,404ZM263.22,258.83c-1.53.57-1.93,1.92-2.27,3.31-4.82,7.41-6,15.4-3,23.7,6.6,18.11,27.75,24.08,43.72,15.8,13-6.72,20-20.78,14.56-36-3.34-9.34-10.3-15.29-19.9-17.77-10-2.59-19.14-.12-27.56,5.54-2.13,1.5-4.51,2.74-5.53,5.37Zm3.62-88.9-.07.07c-1.55.76-1.83,2.54-3,3.65a1.45,1.45,0,0,0-.3,1.23,1,1,0,0,0,1.44.44c3.93-1.91,8.45-1.48,12.4-3.26,1.59-.21,3.17-.46,4.76-.62s2.37-.76,1-2.06c-5.16-4.88-8.93-7.57-14.42-1.5C267.5,168.05,267.31,169.12,266.84,169.93ZM355.47,300c-1,.93-.84,2.41-1.52,3.36-2.32,3.21-.76,4.17,2.3,4.48,3.34,2,3.39,2,3.52-1.73a35.49,35.49,0,0,0-.17-6.1c-.18-1.32-.37-3.32-2.11-3.34S355.67,298.61,355.47,300ZM244,174.5a21,21,0,0,0-4,13.76l12.49-8.64,0-.16c4.74-.12,6-3.79,7.45-7.29a2.77,2.77,0,0,0,1.57-2.34c1.67-1.69,3.34-3.39,5-5.08.55-.55,1.45-1,1.17-1.9s-1.35-.57-2.07-.59a25.44,25.44,0,0,0-17,6A15.49,15.49,0,0,0,244,174.5ZM363.15,359.56l0,0a12.42,12.42,0,0,0,10.64,4.17c4.87-.34,7.53-3.77,8.37-8.6a37.76,37.76,0,0,1,6.41-15.55,19.28,19.28,0,0,0,3.68-8.38,5.87,5.87,0,0,0-5.66-6.91c-5.41-.24-9.43,2.77-13.52,5.64-1-.14-1.9-.46-2.1-1.65,3.42-3.95,3.42-3.94-.72-7.3-4.93-4-10.45-7-16-10-3.89-2.08-6-2.18-9.36.41a4.2,4.2,0,0,0-2.3.5c-7.34,2.34-14.72,4-22.59,3.24-9.28-.86-18.53-.68-27.69,1.74-18.11,4.79-27.28,17.77-30,34-2.14,12.95,1.85,24.41,12,33.31,10.62,9.28,22.83,14.56,37,13,20.43-2.27,36.39-12.91,49.64-28.15,2.26-2.6,3-4.53-.44-6.57a3,3,0,0,1-1.42-3.25c.24-1.12,1.42-.92,2.3-1Zm142.14-86.41c-.56-2-2.36-2.62-4-3.3-11.75-4.84-18.61,2.33-23.93,11-1,1.59,0,2,1.42,2,2.73.06,5.46.19,8.19.3,2.39,1.91,5.71,2,8,4.09.78.71,1-.16,1.34-.81A30.92,30.92,0,0,1,505,275.28C505.76,274.68,506.44,274,505.29,273.15Zm-398.55-4.07c-5.07-2.76-9.42-.37-13.74,2-2.42,1.3-2.76,2.65-.32,4.53a19.49,19.49,0,0,1,6.44,8.64c1.79,4.73,1.72,4.76,6.48,2.95a7,7,0,0,0,1.16-.7,64.74,64.74,0,0,1,16,1.42c-1.4-5.59-6.33-13.51-10.13-16.43C110.92,270.14,109.06,269,106.74,269.08Zm419.18,13.14a2.55,2.55,0,0,0-1.11-2c-8.47-7.91-18.15-5.58-24,4.7-3.26,5.77-2.85,4.67,1.92,9.17,2,3.35,4.74,6.26,6.18,10.31.79-.88,1.33-1.44,1.82-2,4.09-5,8.94-9,15.12-11.15,5.8-2,5.84-1.95,1.85-7C527.19,283.46,527,282.47,525.92,282.22Zm-440.5-7c-.27-.19-.51-.49-.81-.56-7.53-1.84-18.47,5-20.09,12.43-.34,1.57.47,1.9,1.56,2.5a49.94,49.94,0,0,1,12,8.79c2.55,2.58,4.39,5.65,6.71,8.59,1-1.42,1.8-2.5,1.88-3.94a47.91,47.91,0,0,1,8.93-10.14c.94-.87,2-1.81,1.57-3.5C95.46,282.8,92.31,277.44,85.42,275.18ZM350.48,412c.14,1.35-.58,2.29-1.33,3.35-2.39,3.43-4.59,7-7.11,10.86,2.14-.22,3.14.92,4,2.22,2.59,3.83,5.26,7.61,7.73,11.51,2.93,4.62,3.2,4.81,8.69,3.89,3.94-.67,4.73-1.59,3.82-5.4-1.73-7.18-3.47-14.36-5.63-21.41-1-3.35-1.71-7.13-5.15-9.24-4.85-2.83-9.94-1-14.94-.73-1.05,0-.92,1.13-.91,1.91q.07,5.48.19,10.95c0,.51-.28,1.29.49,1.39a1.87,1.87,0,0,0,1.45-.64,53.76,53.76,0,0,1,3.52-4.95C346.77,414.18,347.55,411.51,350.48,412ZM125.55,293.37c-3-2.86-7-2.82-10.61-3.29-12.48-1.62-22.31,7.95-26.29,17.48-1.57,3.75-2,8.32,1.43,11.94.28,1.28,1.31,1.49,2.36,1.69,1.39,1.63,3.34,1.78,5.23,1.71,6.09-.21,10.62-3.42,14.61-7.71,2-2.12,3-5,5.7-6.53,1.79,1.32,1.53,2.79.41,4.43A31.58,31.58,0,0,1,108.24,323c-1.44.84-2.15,1.54-1.72,3.7a18.08,18.08,0,0,1-1.94,13c-.62,1-1.25,2.59-2.64,2s-.54-2-.06-3a18.7,18.7,0,0,0,1.35-9.77c-.12-1.37-.32-3-2.3-2.7a15.92,15.92,0,0,1-13.8-4.07c-.43,1.46-.75,2.53-1.06,3.6-5.59,7.95-13.13,9.22-21.63,6.47a16.9,16.9,0,0,1-9.81-8.5c-2.17-4.09-1.18-8.86-2.26-13.23,0-.19.39-.51.61-.76a2.38,2.38,0,0,1,1.69,1c3.21,4.92,7.66,8.61,12.19,12.21-1.24,2.79-3.08,1.39-4.65.53a45,45,0,0,1-4.28-3c.59,4.07,4.92,8.25,9,9.19,6,1.35,11.89-.56,14.65-4.72.69-.54,1.42-1,1.55-2a.45.45,0,0,0,.17-.59,6.65,6.65,0,0,0,1.13-4.89A31.29,31.29,0,0,0,72,297.35C68.8,295,65.65,291.93,61.23,292c-6.14.13-11.79,5.31-13,11.62-1.32,1.2-1.32,2.83-1.49,4.44-1.38,13.58,4.68,24.31,13.11,34.1,5.11,5.93,11.29,10.78,15.78,17.39,9.75,14.35,20.7,27.83,31.94,41q18.63,21.89,39.16,42c8.8,8.64,17.9,17,27.06,25.23.86.77,2,2,3.29.81,4.39-3.94,8.92-7.76,12.37-12.64,7-6.71,12.3-14.72,17.28-22.95,4.35-7.2,7.26-15.05,10.29-22.88,3.21-8.28,3.05-9.36-4.83-13.7-.07-.22-.07-.53-.22-.64-15.18-10.95-29.64-22.79-43.68-35.14-11.16-9.82-22.15-19.85-31.32-31.65-1.45-1.87-3.29-3.61-3.23-6.21a106,106,0,0,0-1.58-19C131.47,299.76,131,294.81,125.55,293.37Zm150.14,107a1.67,1.67,0,0,0,1.95.1c4.47.1,8.93.18,13.39.3,7.07.2,13.06,2.47,17.92,8,6.92,7.87,12.77,16.5,18.86,25,2.7,3.74,3,3.69,5.16-.55,3.14-3.13,4.77-6.26,4-11.31a116.91,116.91,0,0,1-.74-25.38c.07-1,.67-3.22-1.52-2.3-1.83.77-4.1.85-5.48,2.61l-13.72,4L304,401a51.3,51.3,0,0,1-11.55-2.09c-6.77-2.32-12.75-6-18.85-9.5,0-1.25-1.16-1.63-1.84-2.28-14-13.21-16.68-29-10.82-46.78,1.7-5.17,5.11-9.32,8-13.81,9.31-10,21.08-14.44,34.4-15.5l1.23-.25,3.45-.13c9.71.58,19.48,1.48,29-.94,4.38-1.1,9.23-2,11.74-6.65.47-.62,1.49-.75,1.56-1.73,3.1-4.31,2.41-8.84-.26-12.75-2.29-3.34-6.08-4-10.15-3-6.45,1.48-12.94,2.88-19.47,4-2.39.4-3.6,1.43-4.14,3.59a19.37,19.37,0,0,0-1.41,1.46c-10.95,14.24-32.2,17.95-47.47,8.27a35.29,35.29,0,0,1-10.62-11.71,30.87,30.87,0,0,1-3.63-19.5c1.09-6.92,4.83-12.78,10-17.65,15.14-14,35.54-13.7,49.82.05,1.48,1.43,2.1.88,3.25-.27a31.9,31.9,0,0,1,20.53-9.57A36.11,36.11,0,0,1,355,247.68c.55.41,1.08.84,1.64,1.23,2.85,2,3.93,1.47,4.48-2,.65-4.07-.46-7.82-3.76-10s-4.14-4.82-4.58-8.14A67.32,67.32,0,0,0,343.16,201c-7-11-16.42-18.86-29.3-22.11-3.17-2.09-6.92-2.16-10.45-2.84-8.32-1.6-16.69-2.18-25,.11-5.45.22-10.51,2-15.61,3.73-2.14.71-2.79,2-3,4a91.16,91.16,0,0,0-.43,10.31c0,1.21.15,2.85-1.55,3s-1.7-1.64-1.9-2.79a39.37,39.37,0,0,1,0-9.27c.12-1.95-.23-2.25-2-1.32a62.48,62.48,0,0,0-9.76,6.33c-3,2.31-5.35,5-4.21,9.3.22.84.56,2.22-.89,2.56-1.22.29-1.54-.92-1.89-1.66-1.17-2.49-1.92-1.65-3.21,0a54.57,54.57,0,0,0-10.29,24.08c-2.09,11.74-.5,23.51,2.48,35.05,2.14,8.29,4.08,16.63,6.33,24.88a90.35,90.35,0,0,1,2.29,12.5c.1.75.15,1.75,1.17,1.88,1.29.15,1.36-1.05,1.58-1.86a24.34,24.34,0,0,0,.32-2.72,45.69,45.69,0,0,1,3.22-12.2c1.73-3.69,3.74-4,5.81-.55,3.94,6.5,6.23,13.7,7.82,21.1.23,1.08.21,2.48-1.23,2.82s-1.82-1-2.15-1.84c-.93-2.3-1.58-4.72-2.36-7.09q-1.77-5.34-3.56-10.67c-.19-.57-.49-1.08-1.14-1.13-.82-.08-.77.62-.89,1.15-.7,3.12-1.3,6.26-2.12,9.34-1.13,4.27-1,8.79-3.31,12.86-2,3.5.08,7.55,3.79,9.1a20.44,20.44,0,0,1,4.39,2.59c1.38,1,1.92,2.35,0,3.55-1-.56-2-1.08-2.94-1.68A12.22,12.22,0,0,0,226,326.42a13.56,13.56,0,0,0,1.42,14.68,14.09,14.09,0,0,0,15.1,4.76c1.08-.36,2.08-1,3.16-1.33s2.33-1.13,3,.29-.65,2-1.5,2.74a5.5,5.5,0,0,1-1.17.7c-2,1-2.52,2.25-2.22,4.65a186.81,186.81,0,0,1,.07,46.6c-.36,2.92.22,3.4,2.88,3,7.6-1.07,15.22-2.06,22.93-1.92,1.09,0,2.33.25,3.27-.66ZM384.6,610.57l4.06-.42c2.49,0,5,.11,7.19-1.47a.77.77,0,0,0,.54-.18c1.14-.06,2.29,0,3.42-.22s2.61-.15,2.76-1.51-1.42-1.53-2.44-2C392,601.42,383.5,599.21,375,597a235.32,235.32,0,0,0-52.3-6.87c-20.24-.54-40.49-.47-60.66,2.68-8,1.25-16.08,2.09-24.05,3.66-7.82,1.53-15.51,3.55-24.14,6,7.57,2.26,14.44,2.58,21.16,3.71,5.93.61,11.81,1.59,17.72,2.35,9.31,1.18,18.68,1.72,28,2.8,9,1,18.11.82,27.16,1.28a555.65,555.65,0,0,0,69.85-1C380.08,611.73,382.49,612.08,384.6,610.57ZM367.1,426.41c.82,4.25,1.71,8.49,2.44,12.75,1,6.13.58,6.72-5.45,7.38a30.56,30.56,0,0,1-3.43.31c-2.53,0-3,1-1.89,3.17,6.28,12.85,10.23,26.5,13,40.45.6,3,1.89,2.86,3.84,2.47a127.18,127.18,0,0,0,16.55-4.36c14.47-5,27.29-12.45,37.69-23.83,2.47-2.71,3.81-5.76,2.9-9.37a49.62,49.62,0,0,0-2.78-8c-5.55-12.35-14.07-22.54-23.41-32.19-3.5-3.62-7.85-6.2-11.25-9.9a72.61,72.61,0,0,0-24.05-13.43,4.1,4.1,0,0,0-4.58,1c-2.64,2.22-4.53,5.06-6.9,7.49-3.26,3.35-3.25,3.41,0,6.56a7.44,7.44,0,0,1,1.93,3.16C363.53,415.47,365.31,420.94,367.1,426.41Zm-67.19-11.74c-.45,1.17-1,2.32-1.34,3.52-2.07,7.45-4.22,14.88-6.08,22.39-.75,3.06-2.35,3.87-5.32,3.8-7.34-.17-14.69,0-22,0-2.47,0-3.44.11-2.53,3.21,1.28,4.32,2.44,8.81,1.88,13.46-.1.87.19,2.2-.9,2.3s-1.56-1-1.57-2.18c0-6-2.29-11.38-4.35-16.84a11.76,11.76,0,0,0-.41-3,114,114,0,0,0-27.74-40c-1.8-1.67-3.46-3.83-6.57-4.66,1,3.25.37,6.06-.1,8.88a21.92,21.92,0,0,0-1.08,2.5c-5,15.88-13.35,29.85-23.43,43-2.92,3.79-6.19,7.28-8.94,11.2-1.24.47-1.91,1.58-2.81,2.45-4,3.86-7.62,8.18-12.62,10.87-2.25,1.21-2.45,2.12-.29,3.87a95.29,95.29,0,0,0,21.7,13.17,81.58,81.58,0,0,0,28.07,6.83c3.12.18,6.38.77,9.45-.58h4.88l-.09,2.08a5.47,5.47,0,0,0-3.43,1.35c-5.14.35-10.26,1-15.42.36-1.36-.17-1.9,1-2.55,2-4.68,6.84-9.12,13.81-14.49,20.19-14.77,17.52-28.23,35.91-36.07,57.79-3.51,9.76-5.83,19.71-6,30.14,0,2.29.51,3,2.93,2.65a83.65,83.65,0,0,0,15.92-4c9.47-3.3,18.76-7.09,28.13-10.67l.83-.08a1.24,1.24,0,0,0,1.49-.9c8.42-1.53,16.54-4.25,24.91-6a327.9,327.9,0,0,1,45.88-6.17,376.33,376.33,0,0,1,40.3-.79,303.4,303.4,0,0,1,40,3.77,227.89,227.89,0,0,1,29,6.75c11,3.41,22.13,6.43,30.87,14.63,1.88,1.76,3,1.63,3.21-1.36a118.53,118.53,0,0,0-1-26.74,130.07,130.07,0,0,0-14.51-42.09,120.26,120.26,0,0,0-40.82-44.69c-1.53-1-4.31-2.1-3.64-3.51,1.22-2.56,3.32.67,5.43.3-4.39-24-12.12-46.54-27.26-66.23a16.25,16.25,0,0,0-1.5,1.64c-2,2.9-3.84,5.85-5.82,8.74-2.4,3.5-4.22,3.51-6.93.05-1.4-1.78-2.67-3.67-4.11-5.42-5.68-6.88-10.32-14.58-16.5-21.06-2.86-3-5.25-6.82-10-7-8.81-.33-17.63-1-26.45-.05a56.24,56.24,0,0,0-11.22.64c-4.05.68-8.16.94-12.23,1.52-1.64.23-4-.14-4.64,1.49-.57,1.38,1.39,2.61,2.25,3.88,1.47,2.15,3.09,4.19,4.45,6.4,2.93,4.76,5.74,9.59,8.6,14.39.23,2.68,2,4.84,2.52,7.4.23,1.06,1.06,1.13,1.84,1.12,8.6-.06,17.19-.16,25.79-.23a1.92,1.92,0,0,0,2.17-1.71,216.24,216.24,0,0,1,6.82-26.37c1.34-1.23,2.57-3.14,4.45-.64a.4.4,0,0,0-.1.59A1.38,1.38,0,0,0,299.91,414.67Zm56.38-121.43c1-.95,1.83-1.58,2.5-2.32,8.54-9.56,11.28-23.81,1.36-34.83s-29-11.45-39.39-1.8c-4.17,3.89-4.22,3.76-2,8.76a29.57,29.57,0,0,1,1.34,20.72c-.51,1.81.09,2.47,1.74,2.15,3.58-.68,7.14-1.48,10.69-2.29,5.92-1.36,11.74-3.2,17.63.44C353.6,286.17,354.71,289.57,356.29,293.24ZM287.73,160.31a17.37,17.37,0,0,0-6.51.72c-.66.23-1.78-.5-1.93.76a1.7,1.7,0,0,0,1.35,1.78c3.08,1,4.42,3.78,6.45,5.87,1,1,1.78,2,3.43,1.9,6.13-.39,12.13.63,18.12,1.76.9.17,2.18,1,2.7-.27.41-1-.58-1.9-1.25-2.67C304.35,163.58,297.21,160,287.73,160.31ZM169,468.32c-.18,2.3-1.15,4.22.89,5.37.76.43,1.94-.28,2.24-1.07C173.07,470.15,170.79,469.78,169,468.32ZM220.32,396a2.53,2.53,0,0,0-2.29-1.84c-.52,0-1.18.32-1,1a2.91,2.91,0,0,0,2.38,2.07C220.05,397.35,220.36,396.79,220.32,396Z" transform="translate(-42.7 -156.59)"/><path class="cls-4" d="M426.6,607.61" transform="translate(-42.7 -156.59)"/><path class="cls-4" d="M425.36,616.05" transform="translate(-42.7 -156.59)"/><path class="cls-5" d="M548.9,320.85c.12-.35.24-.7.37-1C549.14,320.15,549,320.5,548.9,320.85Z" transform="translate(-42.7 -156.59)"/><path class="cls-4" d="M490.06,265.66a2.86,2.86,0,0,1-2.14.52" transform="translate(-42.7 -156.59)"/><path class="cls-6" d="M506.4,269.88" transform="translate(-42.7 -156.59)"/><path class="cls-6" d="M507.93,271.27" transform="translate(-42.7 -156.59)"/><path class="cls-1" d="M216.37,175.41h0" transform="translate(-42.7 -156.59)"/><path class="cls-6" d="M97.69,265.37" transform="translate(-42.7 -156.59)"/><path class="cls-6" d="M110.25,266.16" transform="translate(-42.7 -156.59)"/><path class="cls-6" d="M95,266.31l-4,2.34" transform="translate(-42.7 -156.59)"/><path class="cls-6" d="M85.29,271.24l3.38-.75" transform="translate(-42.7 -156.59)"/><path class="cls-6" d="M90.59,269.07a.91.91,0,0,1-1.1.74Z" transform="translate(-42.7 -156.59)"/><path class="cls-6" d="M89.46,269.82l-.69.56Z" transform="translate(-42.7 -156.59)"/><path class="cls-7" d="M239.79,171.94" transform="translate(-42.7 -156.59)"/><path class="cls-8" d="M207.34,605.15c9.95,1.6,19.88,3.34,29.84,4.79,18.27,2.66,36.63,4.46,55.07,5.59,19,1.17,38.09,1.43,57.15,1,14.33-.33,28.67-.92,42.87-3.18A126.41,126.41,0,0,0,407,610.06c5.57-1.58,8.45.64,8.15,6.33-.11,2.15-.41,4.3-.63,6.45l-201,0c-.46,0-.92-.08-1.37-.12a22.58,22.58,0,0,0-4.91-13.36C205.4,607.18,206.79,606.52,207.34,605.15Z" transform="translate(-42.7 -156.59)"/><path class="cls-4" d="M207.34,605.15c-.55,1.37-1.94,2-.11,4.25a22.58,22.58,0,0,1,4.91,13.36h-44c-1-3.52.78-4.62,3.92-5.49,9.75-2.71,19-6.93,28.51-10.31C202.77,606.2,204.75,604.48,207.34,605.15Z" transform="translate(-42.7 -156.59)"/><path class="cls-2" d="M300.83,412.81a.4.4,0,0,1,.1-.59c.36-1.6,0-3-1.61-3.63-2.49-1-3.43.4-2.84,4.27a216.24,216.24,0,0,0-6.82,26.37,1.92,1.92,0,0,1-2.17,1.71c-8.6.07-17.19.17-25.79.23-.78,0-1.61-.06-1.84-1.12-.57-2.56-2.29-4.72-2.52-7.4,1.33-.38,1.39-1.56,1.85-2.62,3.18-7.44,5-15.52,10.08-22.08a5.38,5.38,0,0,0,.86-3.62c8.82-.91,17.64-.28,26.45.05,4.74.18,7.13,4,10,7,6.18,6.48,10.82,14.18,16.5,21.06,1.44,1.75,2.71,3.64,4.11,5.42,2.71,3.46,4.53,3.45,6.93-.05,2-2.89,3.86-5.84,5.82-8.74a16.25,16.25,0,0,1,1.5-1.64c15.14,19.69,22.87,42.24,27.26,66.23-2.11.37-4.21-2.86-5.43-.3-.67,1.41,2.11,2.52,3.64,3.51a120.26,120.26,0,0,1,40.82,44.69,130.07,130.07,0,0,1,14.51,42.09,118.53,118.53,0,0,1,1,26.74c-.22,3-1.33,3.12-3.21,1.36-8.74-8.2-19.85-11.22-30.87-14.63a227.89,227.89,0,0,0-29-6.75,303.4,303.4,0,0,0-40-3.77,376.33,376.33,0,0,0-40.3.79A327.9,327.9,0,0,0,234,593.56c-8.37,1.79-16.49,4.51-24.91,6-.78-.18-1.38,0-1.49.9l-.83.08a125,125,0,0,1,.68-18.86c.51-4.77.47-9.69,1.69-14.27,3.43-12.77,6.18-25.77,11.42-38,3.36-7.81,6.83-15.61,12.34-22.22a6.5,6.5,0,0,0,1.4-5.08,5.47,5.47,0,0,1,3.43-1.35c.71,0,1.29-.19,1.31-1s-.48-1.1-1.22-1.09H232.9c.46-3.13-2.3-2.81-4-3.73-12.63-7.07-23.92-16-34.62-25.65-2.1-1.89-4.44-4-4.93-7.23,2.75-3.92,6-7.41,8.94-11.2,10.08-13.11,18.47-27.08,23.43-43a21.92,21.92,0,0,1,1.08-2.5c4.2,1,6.75,4.35,9.48,7.1a117.59,117.59,0,0,1,18.81,25.27c1.38,2.46,1.89,6.88,6.53,6.47,2.06,5.46,4.31,10.87,4.35,16.84,0,1.18.4,2.29,1.57,2.18s.8-1.43.9-2.3c.56-4.65-.6-9.14-1.88-13.46-.91-3.1.06-3.24,2.53-3.21,7.34.07,14.69-.13,22,0,3,.07,4.57-.74,5.32-3.8,1.86-7.51,4-14.94,6.08-22.39.34-1.2.89-2.35,1.34-3.52C300.88,414.38,301.25,413.79,300.83,412.81Z" transform="translate(-42.7 -156.59)"/><path class="cls-9" d="M86.07,325.69l1.06-3.6a15.92,15.92,0,0,0,13.8,4.07c2-.3,2.18,1.33,2.3,2.7a18.7,18.7,0,0,1-1.35,9.77c-.48,1-1.34,2.39.06,3s2-1,2.64-2a18.08,18.08,0,0,0,1.94-13c-.43-2.16.28-2.86,1.72-3.7a31.58,31.58,0,0,0,10.15-9.87c1.12-1.64,1.38-3.11-.41-4.43-1.94-1.41-3.71-1.34-5.09.75-2.85,4.31-6.51,7.55-11.59,8.95-3,.82-6.18,1-8.86,2.83-1-.2-2.08-.41-2.36-1.69.69-2.76,1.51-5.5,2-8.29,1.75-9,12.8-19,23.4-19.43,3.6-.15,6.52,1.92,9.9,2.27,2.13,2.68,4.15,5.56,4.67,8.93.86,5.52,1.22,11-.27,16.68-1.16,4.37-2,8.76,2.07,13.09,6.35,6.78,13.22,12.93,20,19.21,6,5.6,11.91,11.4,18.22,16.69,7.53,6.3,15.45,12.16,23.23,18.15a63.4,63.4,0,0,0,18.78,9.68c7.88,4.34,8,5.42,4.83,13.7-3,7.83-5.94,15.68-10.29,22.88-5,8.23-10.28,16.24-17.28,22.95a2.24,2.24,0,0,1-2.1-.8c-9.44-9.66-19-19.22-28.39-28.91s-18.8-19.69-28.31-29.44c-11.16-11.44-23-22.31-32-35.64-3.12-4.62-6.23-9.35-7.11-15.09s-1.82-11.49-2.7-17.25C88.54,327.22,88.32,325.61,86.07,325.69Z" transform="translate(-42.7 -156.59)"/><path class="cls-9" d="M432,443.25c-3.05-4.74-5.91-9.61-9.17-14.2a132.17,132.17,0,0,0-21.77-23.32c-.51-.44-1-1-1.44-1.43-.15-.31-.35-.49-.71-.28-.16,0-.24-.07-.24-.22.14-.76-.32-.88-.91-.85a.88.88,0,0,1-.85-.74c5.84-3.34,10.23-8.42,15.18-12.81,10.11-9,20.06-18.11,30.06-27.2,7.61-6.92,15.65-13.43,22.31-21.34,4.85-5.76,7.6-12.22,5.26-20a10.13,10.13,0,0,1-.33-3.06c.17-11.18,2-21.78,10.81-29.84.19-.17.11-.65.15-1l3.89.29a4.32,4.32,0,0,0,3,.27c7.1,2.36,12.15,7.22,16.19,13.31a39,39,0,0,1-1.63,8.68c-.87,3.16-4.75,5.46-8,5.52s-5.83-1.64-8.87-1.6l.15,0c-.11-.7-.58-.86-1.2-.8-2.06-1.85-3.2-4.4-4.88-6.53-.61-.78-1-2.5-2.52-1.52-1.11.74-.69,2.18-.16,3.14,2.36,4.19,5.1,8.1,9,11a14.79,14.79,0,0,0,1.69,1.15c2.45,1.31,2.39,2.43.53,4.62a15.17,15.17,0,0,0-3.92,10.69c.06,1.09-.3,2.63,1.3,2.74s2.07-1.4,2.05-2.65c-.06-4.42,2.21-7.69,5-10.73a3.34,3.34,0,0,1,3.27-1.4,12.28,12.28,0,0,0,8.82-1.92c1.3-.81,2.3-1.07,3.14.87,2.6,5.94,10.42,9.49,17.09,8.25,7.16-1.33,14-6.94,13.9-15.74a4.47,4.47,0,0,1,.78-2.23c.48-.87,1.21-2-.17-2.6-1.07-.5-1.88.18-2.57,1.11-2.45,3.3-5.2,6.25-9,8.13-1,.49-2.74,1.31-1.93,2.75.64,1.14,2.28.43,3.49.21.21,0,.38-.24.6-.32,1.1-.4,2.29-2.36,3.13-1.22,1.11,1.5-1,2.69-1.94,3.53-5.49,4.66-12.75,4.63-18.64-1.12,1.65-4.24,3-8.61,5.35-12.57,5.27-8.78,14-10.59,23.12-11.71,3.36,2.61,4.65,4.9,4.09,7.28-.08,4.46.09,8.95-1.38,13.25-2.72,7.93-7.88,14.06-14.59,18.82-8,5.68-15.91,11.22-21.48,19.69-4.88,7.43-10.78,14.18-16.15,21.28a350.75,350.75,0,0,1-25.47,29.54c-5.73,6.06-11.09,12.48-16.74,18.62C443.52,432.84,438.79,439.12,432,443.25Z" transform="translate(-42.7 -156.59)"/><path class="cls-10" d="M361.4,358.14c-.88.1-2.06-.1-2.3,1a3,3,0,0,0,1.42,3.25c3.48,2,2.7,4,.44,6.57-13.25,15.24-29.21,25.88-49.64,28.15-14.19,1.57-26.4-3.71-37-13-10.18-8.9-14.17-20.36-12-33.31,2.69-16.22,11.86-29.2,30-34,9.16-2.42,18.41-2.6,27.69-1.74,7.87.73,15.25-.9,22.59-3.24a4.1,4.1,0,0,1,2.3-.49,14.79,14.79,0,0,1,9,3.16,7.07,7.07,0,0,0,2.56.72,3.85,3.85,0,0,0,3.39,2.07c1.95,1.34,3.89,2.68,5.85,4,2.56,1.72,5.59,3.06,5.34,6.94.2,1.19,1.08,1.51,2.1,1.65.57,2,1.94,1.17,3,.74a18.83,18.83,0,0,0,2.59-1.65c3.2-1.9,7.32-1.76,9.29.3,1.62,1.69,1.29,5.66-.81,8.61a41.42,41.42,0,0,0-6,13.93c-2.18,8.28-4.47,10.54-11.48,9.76-2.22-.25-4.33-1.35-6.49-2.06l0,0A1.5,1.5,0,0,0,361.4,358.14Zm9.17-10.63c-.46,2.05,1,3.18,3.27,3.84s3.64-.75,4.92-2.21a4.34,4.34,0,0,0,.34-5.42c-1.26-2-2.14-3.42.27-5.05a1.58,1.58,0,0,0,.24-1.92c-.28-.61-.81-.64-1.44-.46C375.29,337.12,370.54,343.74,370.57,347.51Z" transform="translate(-42.7 -156.59)"/><path class="cls-11" d="M272.92,400c-.94.91-2.18.68-3.27.66-7.71-.14-15.33.85-22.93,1.92-2.66.37-3.24-.11-2.88-3a186.81,186.81,0,0,0-.07-46.6c-.3-2.4.23-3.68,2.22-4.65a5.5,5.5,0,0,0,1.17-.7c.85-.72,2.15-1.42,1.5-2.74s-2-.61-3-.29-2.08,1-3.16,1.33a14.09,14.09,0,0,1-15.1-4.76A13.56,13.56,0,0,1,226,326.42c.18,2.67,2.09,2.74,4.07,2.69-.6,5.69,2.83.22,4,1.6-1.25,2.12-2.72,4.36-1,7a2.38,2.38,0,0,0,2.89,1.18c1.23-.37,1-1.43.59-2.26-.91-1.72-.69-3,1.07-4,2.17-1.22,2.48.83,3.24,1.89a1.87,1.87,0,0,0,2.62.8c1.1-.56.73-1.52.46-2.4S243.34,331,243,330c4.38-1.11,5.5-3.7,3-6.85,1.89-1.2,1.35-2.51,0-3.55a20.44,20.44,0,0,0-4.39-2.59c-3.71-1.55-5.77-5.6-3.79-9.1,2.29-4.07,2.18-8.59,3.31-12.86.82-3.08,1.42-6.22,2.12-9.34.12-.53.07-1.23.89-1.15.65.05.95.56,1.14,1.13q1.78,5.34,3.56,10.67c.78,2.37,1.43,4.79,2.36,7.09.33.82.85,2.15,2.15,1.84s1.46-1.74,1.23-2.82c-1.59-7.4-3.88-14.6-7.82-21.1-2.07-3.42-4.08-3.14-5.81.55a45.69,45.69,0,0,0-3.22,12.2,24.34,24.34,0,0,1-.32,2.72c-.22.81-.29,2-1.58,1.86-1-.13-1.07-1.13-1.17-1.88a90.35,90.35,0,0,0-2.29-12.5c-2.25-8.25-4.19-16.59-6.33-24.88-3-11.54-4.57-23.31-2.48-35.05a54.57,54.57,0,0,1,10.29-24.08c1.29-1.68,2-2.52,3.21,0,.35.74.67,1.95,1.89,1.66,1.45-.34,1.11-1.72.89-2.56-1.14-4.3,1.25-7,4.21-9.3a62.48,62.48,0,0,1,9.76-6.33c1.81-.93,2.16-.63,2,1.32a39.37,39.37,0,0,0,0,9.27c.2,1.15.15,2.9,1.9,2.79s1.53-1.75,1.55-3a91.16,91.16,0,0,1,.43-10.31c.25-2,.9-3.28,3-4,5.1-1.7,10.16-3.51,15.61-3.73-2.24,3.6-5.58,6.23-8.18,9.55-5.42,6.89-9.3,14.41-10.76,23-1.07,6.29-.92,12.67-.63,19.12.38,8.38,2.09,16.5,3,24.76a1.5,1.5,0,0,0,1.28,1.4c-5.13,4.87-8.87,10.73-10,17.65a30.87,30.87,0,0,0,3.63,19.5,35.29,35.29,0,0,0,10.62,11.71,1.56,1.56,0,0,0-1.32,2c1.05,5.22.11,10.53.75,15.73.24,1.95-.74,4.72,2.05,5.93-2.86,4.49-6.27,8.64-8,13.81-5.86,17.8-3.13,33.57,10.82,46.78.68.65,1.86,1,1.84,2.28.17.42.33.84.5,1.25,1.92,4.63,1.73,5.53-1.75,8.58Z" transform="translate(-42.7 -156.59)"/><path class="cls-9" d="M263.11,254a1.5,1.5,0,0,1-1.28-1.4c-.92-8.26-2.63-16.38-3-24.76-.29-6.45-.44-12.83.63-19.12,1.46-8.57,5.34-16.09,10.76-23,2.6-3.32,5.94-5.95,8.18-9.55,8.33-2.29,16.7-1.71,25-.11,3.53.68,7.28.75,10.45,2.84-.12,1.48,1.2,1.43,2,1.91,2.94,1.7,6,3.19,8.54,5.55a72.3,72.3,0,0,1,12.72,15.92c5.89,9.78,8.7,20.3,10.19,31.35a5.83,5.83,0,0,0,3.05,4.82c4.48,2.82,6.58,5.22,4.57,9.23a36.11,36.11,0,0,0-18.24-3.49,31.9,31.9,0,0,0-20.53,9.57c-1.15,1.15-1.77,1.7-3.25.27C298.65,240.28,278.25,240,263.11,254Z" transform="translate(-42.7 -156.59)"/><path class="cls-2" d="M395.32,405.25c3.4,3.7,7.75,6.28,11.25,9.9,9.34,9.65,17.86,19.84,23.41,32.19a49.62,49.62,0,0,1,2.78,8c.91,3.61-.43,6.66-2.9,9.37-10.4,11.38-23.22,18.85-37.69,23.83a127.18,127.18,0,0,1-16.55,4.36c-1.95.39-3.24.58-3.84-2.47-2.78-14-6.73-27.6-13-40.45-1.06-2.17-.64-3.2,1.89-3.17a30.56,30.56,0,0,0,3.43-.31c6-.66,6.5-1.25,5.45-7.38-.73-4.26-1.62-8.5-2.44-12.75,7.23-4.44,13.07-10.69,20.22-15.31,2.7-1.74,4.26-3.27,7-.7.57.54,1.71,1.18,2.35,0s-.26-1.54-1.11-2.11C394.34,407.48,393.86,406.37,395.32,405.25Z" transform="translate(-42.7 -156.59)"/><path class="cls-11" d="M86.07,325.69c2.25-.08,2.47,1.53,2.72,3.19.88,5.76,1.82,11.5,2.7,17.25s4,10.47,7.11,15.09c9,13.33,20.84,24.2,32,35.64,9.51,9.75,18.83,19.68,28.31,29.44s19,19.25,28.39,28.91a2.24,2.24,0,0,0,2.1.8c-3.45,4.88-8,8.7-12.37,12.64-1.31,1.17-2.43,0-3.29-.81-9.16-8.26-18.26-16.59-27.06-25.23q-20.52-20.13-39.16-42c-11.24-13.2-22.19-26.68-31.94-41C71.09,353,64.91,348.1,59.8,342.17c-8.43-9.79-14.49-20.52-13.11-34.1.17-1.61.17-3.24,1.49-4.44,2.76,1.09,3.18,4,4.8,6-.22.25-.65.57-.61.76,1.08,4.37.09,9.14,2.26,13.23a16.9,16.9,0,0,0,9.81,8.5C72.94,334.91,80.48,333.64,86.07,325.69Z" transform="translate(-42.7 -156.59)"/><path class="cls-12" d="M234.26,502.16a6.5,6.5,0,0,1-1.4,5.08c-5.51,6.61-9,14.41-12.34,22.22-5.24,12.22-8,25.22-11.42,38-1.22,4.58-1.18,9.5-1.69,14.27a125,125,0,0,0-.68,18.86c-9.37,3.58-18.66,7.37-28.13,10.67a83.65,83.65,0,0,1-15.92,4c-2.42.34-3-.36-2.93-2.65.15-10.43,2.47-20.38,6-30.14,7.84-21.88,21.3-40.27,36.07-57.79,5.37-6.38,9.81-13.35,14.49-20.19.65-.94,1.19-2.15,2.55-2C224,503.16,229.12,502.51,234.26,502.16Z" transform="translate(-42.7 -156.59)"/><path class="cls-2" d="M268.77,253.43c8.42-5.66,17.56-8.13,27.56-5.54,9.6,2.48,16.56,8.43,19.9,17.77,5.45,15.2-1.6,29.26-14.56,36-16,8.28-37.12,2.31-43.72-15.8-3-8.3-1.82-16.29,3-23.7a3.24,3.24,0,0,0,3.72-1.56c.66-1.28-1.27-.89-1.45-1.75l0,0C265.31,257.24,268.78,257.13,268.77,253.43Zm12.47,20.35c-.07-2.48-2.14-4.22-4.89-4.13a4.42,4.42,0,0,0-4.3,4.76,4.33,4.33,0,0,0,4.7,4.34A4.67,4.67,0,0,0,281.24,273.78Z" transform="translate(-42.7 -156.59)"/><path class="cls-9" d="M396.39,608.5a.77.77,0,0,1-.54.18c-2.49.06-5,0-7.19,1.47l-4.05.42c-2.39-.19-4.76-.28-6.9,1.09a555.65,555.65,0,0,1-69.85,1c-9.05-.46-18.18-.25-27.16-1.28-9.33-1.08-18.7-1.62-28-2.8-5.91-.76-11.79-1.74-17.72-2.35,3-3.36,7.45-3.37,11.27-4.68A108.14,108.14,0,0,1,267.62,597c11.41-1.48,22.73-3.61,34.3-3.93,7.51-.2,15,.73,22.54-.34a1.24,1.24,0,0,1,1.62,1.26,43.21,43.21,0,0,0-3.36,2.82c-1.49,1.5-2.06,3.34-1,5.28a5.71,5.71,0,0,0,5.69,3.05c2.11-.18,4-.91,4.84-3.14.62-1.6.41-3.11-1.21-3.78-3-1.25-2.41-2.7-.54-4.43a6.18,6.18,0,0,1,2.65-.12c9.84,1.73,19.66,3.61,29.56,4.92A113.43,113.43,0,0,1,396.39,608.5Z" transform="translate(-42.7 -156.59)"/><path class="cls-11" d="M480.36,287c0,.33,0,.81-.15,1-8.84,8.06-10.64,18.66-10.81,29.84a10.13,10.13,0,0,0,.33,3.06c2.34,7.75-.41,14.21-5.26,20-6.66,7.91-14.7,14.42-22.31,21.34-10,9.09-20,18.24-30.06,27.2-5,4.39-9.34,9.47-15.18,12.81a109.08,109.08,0,0,0-13.79-9.48c-3.12-1.86-3.18-2.2,0-4.22,6.31-4.05,11.92-9,17.92-13.47,6.86-5.08,13.41-10.54,20-15.9,13.59-11,26.21-23,38.86-35,2.28-2.15,2.63-4.74,2.41-7.55a43.42,43.42,0,0,1,2.84-19.87C467.61,290.76,471.57,285.87,480.36,287Z" transform="translate(-42.7 -156.59)"/><path class="cls-2" d="M356.29,293.24c-1.58-3.67-2.69-7.07-6.1-9.17-5.89-3.64-11.71-1.8-17.63-.44-3.55.81-7.11,1.61-10.69,2.29-1.65.32-2.25-.34-1.74-2.15a29.57,29.57,0,0,0-1.34-20.72c-2.25-5-2.2-4.87,2-8.76,10.37-9.65,29.46-9.24,39.39,1.8s7.18,25.27-1.36,34.83C358.12,291.66,357.32,292.29,356.29,293.24Zm-.61-24.39a3.55,3.55,0,0,0-3.55,3.87,4.27,4.27,0,0,0,3.77,4.59c2.06.33,4.73-2.11,4.52-4.19C360.17,270.56,358.64,269.07,355.68,268.85Z" transform="translate(-42.7 -156.59)"/><path class="cls-9" d="M268.88,326.54c-2.79-1.21-1.81-4-2.05-5.93-.64-5.2.3-10.51-.75-15.73a1.56,1.56,0,0,1,1.32-2c15.27,9.68,36.52,6,47.47-8.27a19.37,19.37,0,0,1,1.41-1.46.92.92,0,0,0,1.18.32c7.64-2.34,15.48-2.46,23.37-2.31a9.47,9.47,0,0,1,4.47,1.37c3.58,1.95,3.94,5.56,5,8.85-.07,1-1.09,1.11-1.56,1.73a4.23,4.23,0,0,0-3.63.09c-6.54,3.46-13.62,3.55-20.72,3.27-5.93-.24-11.69,0-16.43,4.23l-3.45.13c-.52-.45-.92-.3-1.23.25C290,312.1,278.19,316.59,268.88,326.54Z" transform="translate(-42.7 -156.59)"/><path class="cls-13" d="M432,443.25c6.78-4.13,11.51-10.41,16.77-16.11,5.65-6.14,11-12.56,16.74-18.62A350.75,350.75,0,0,0,491,379c5.37-7.1,11.27-13.85,16.15-21.28,5.57-8.47,13.48-14,21.48-19.69,6.71-4.76,11.87-10.89,14.59-18.82,1.47-4.3,1.3-8.79,1.38-13.25,2.89,5.69,1.55,11.52-.23,17a44.4,44.4,0,0,1-13.59,20.57,22.62,22.62,0,0,1-4.6,3.42c-8.11,3.93-12.08,11.72-17.28,18.35-13,16.58-26.35,32.86-40.4,48.56-10,11.15-20.11,22.14-30.6,32.8-3.25,3.31-3.23,3.34-5.12-1.12C432.46,444.77,432.26,444,432,443.25Z" transform="translate(-42.7 -156.59)"/><path class="cls-12" d="M189.4,462.11c.49,3.18,2.83,5.34,4.93,7.23C205,479,216.32,487.92,229,495c1.65.92,4.41.6,4,3.73-3.07,1.35-6.33.76-9.45.58a81.58,81.58,0,0,1-28.07-6.83,95.29,95.29,0,0,1-21.7-13.17c-2.16-1.75-2-2.66.29-3.87,5-2.69,8.62-7,12.62-10.87C187.49,463.69,188.16,462.58,189.4,462.11Z" transform="translate(-42.7 -156.59)"/><path class="cls-11" d="M396.39,608.5a113.43,113.43,0,0,0-33.64-9.94c-9.9-1.31-19.72-3.19-29.56-4.92a6.18,6.18,0,0,0-2.65.12c-1.59-2.18-3,.18-4.46.2a1.24,1.24,0,0,0-1.62-1.26c-7.5,1.07-15,.14-22.54.34-11.57.32-22.89,2.45-34.3,3.93a108.14,108.14,0,0,0-21.38,4.57c-3.82,1.31-8.27,1.32-11.27,4.68-6.72-1.13-13.59-1.45-21.16-3.71,8.63-2.45,16.32-4.47,24.14-6,8-1.57,16.06-2.41,24.05-3.66,20.17-3.15,40.42-3.22,60.66-2.68A235.32,235.32,0,0,1,375,597c8.54,2.17,17,4.38,25.17,7.77,1,.43,2.6.5,2.44,2s-1.67,1.35-2.76,1.51S397.53,608.44,396.39,608.5Z" transform="translate(-42.7 -156.59)"/><path class="cls-9" d="M53,309.67c-1.62-2-2-4.95-4.8-6,1.26-6.31,6.91-11.49,13-11.62,4.42-.08,7.57,3,10.81,5.34a31.29,31.29,0,0,1,12.43,20.08,6.65,6.65,0,0,1-1.13,4.89c-.09,0-.24.07-.24.11a2.65,2.65,0,0,0,.07.48c-.13,1-.86,1.47-1.55,2a16.54,16.54,0,0,1-14.76-2c-4.53-3.6-9-7.29-12.19-12.21A2.38,2.38,0,0,0,53,309.67Z" transform="translate(-42.7 -156.59)"/><path class="cls-12" d="M395.32,405.25c-1.46,1.12-1,2.23.22,3,.85.57,1.68,1.07,1.11,2.11s-1.78.54-2.35,0c-2.72-2.57-4.28-1-7,.7-7.15,4.62-13,10.87-20.22,15.31-1.79-5.47-3.57-10.94-5.38-16.4a7.44,7.44,0,0,0-1.93-3.16c-3.25-3.15-3.26-3.21,0-6.56,2.37-2.43,4.26-5.27,6.9-7.49a4.1,4.1,0,0,1,4.58-1A72.61,72.61,0,0,1,395.32,405.25Z" transform="translate(-42.7 -156.59)"/><path class="cls-9" d="M272.92,400l-.6-.72c3.48-3.05,3.67-3.95,1.75-8.58-.17-.41-.33-.83-.5-1.25,6.1,3.52,12.08,7.18,18.85,9.5A51.3,51.3,0,0,0,304,401c3.9,2.51,7.71.78,11.55-.23l13.72-4c.35.69,1,1.39,1,2.08-.1,7.52,1.34,14.9,2,22.34.36,4,.25,8,.69,12-2.12,4.24-2.46,4.29-5.16.55-6.09-8.47-11.94-17.1-18.86-25-4.86-5.53-10.85-7.8-17.92-8-4.46-.12-8.92-.2-13.38-.3a1.57,1.57,0,0,0-2-.1Z" transform="translate(-42.7 -156.59)"/><path class="cls-13" d="M212.14,396.48a63.4,63.4,0,0,1-18.78-9.68c-7.78-6-15.7-11.85-23.23-18.15-6.31-5.29-12.18-11.09-18.22-16.69-6.79-6.28-13.66-12.43-20-19.21-4-4.33-3.23-8.72-2.07-13.09,1.49-5.65,1.13-11.16.27-16.68-.52-3.37-2.54-6.25-4.67-8.93,0-.23.09-.45.12-.68,5.4,1.44,5.92,6.39,6.56,10.45a106,106,0,0,1,1.58,19c-.06,2.6,1.78,4.34,3.23,6.21,9.17,11.8,20.16,21.83,31.32,31.65,14,12.35,28.5,24.19,43.68,35.14C212.07,396,212.07,396.26,212.14,396.48Z" transform="translate(-42.7 -156.59)"/><path class="cls-2" d="M355.52,407.77c3.44,2.11,4.13,5.89,5.15,9.24,2.16,7.05,3.9,14.23,5.63,21.41.91,3.81.12,4.73-3.82,5.4-5.49.92-5.76.73-8.69-3.89-2.47-3.9-5.14-7.68-7.73-11.51-.88-1.3-1.88-2.44-4-2.22,2.52-3.87,4.72-7.43,7.11-10.86.75-1.06,1.47-2,1.33-3.35C353,411.54,352.8,407.93,355.52,407.77Z" transform="translate(-42.7 -156.59)"/><path class="cls-13" d="M355,247.68c2-4-.09-6.41-4.57-9.23a5.83,5.83,0,0,1-3.05-4.82c-1.49-11-4.3-21.57-10.19-31.35a72.3,72.3,0,0,0-12.72-15.92c-2.54-2.36-5.6-3.85-8.54-5.55-.82-.48-2.14-.43-2-1.91,12.88,3.25,22.3,11.07,29.3,22.11a67.32,67.32,0,0,1,9.57,27.79c.44,3.32,1.39,6,4.58,8.14s4.41,5.91,3.76,10c-.55,3.46-1.63,4-4.48,2C356,248.52,355.5,248.09,355,247.68Z" transform="translate(-42.7 -156.59)"/><path class="cls-9" d="M85.42,275.18c6.89,2.26,10,7.62,11.8,14.17.46,1.69-.63,2.63-1.57,3.5A47.91,47.91,0,0,0,86.72,303c-4.91-5.6-9.89-11.16-14-17.4a3.75,3.75,0,0,1,.57-4.77C76.58,277.31,81.1,276.46,85.42,275.18Z" transform="translate(-42.7 -156.59)"/><path class="cls-12" d="M270.13,404.33a5.38,5.38,0,0,1-.86,3.62c-5.12,6.56-6.9,14.64-10.08,22.08-.46,1.06-.52,2.24-1.85,2.62-2.86-4.8-5.67-9.63-8.6-14.39-1.36-2.21-3-4.25-4.45-6.4-.86-1.27-2.82-2.5-2.25-3.88.67-1.63,3-1.26,4.64-1.49,4.07-.58,8.18-.84,12.23-1.52A56.24,56.24,0,0,1,270.13,404.33Z" transform="translate(-42.7 -156.59)"/><path class="cls-9" d="M525.92,282.22c1,.25,1.27,1.24,1.81,1.93,4,5.08,3.95,5-1.85,7-6.18,2.12-11,6.13-15.12,11.15-.49.6-1,1.16-1.82,2-1.44-4.05-4.14-7-6.18-10.31,3-.75,3.79-3.49,5.06-5.71,2.21-3.86,5.12-6.35,9.84-6.17C520.41,282.28,523.17,282.21,525.92,282.22Z" transform="translate(-42.7 -156.59)"/><path class="cls-12" d="M257.67,444.29c-4.64.41-5.15-4-6.53-6.47a117.59,117.59,0,0,0-18.81-25.27c-2.73-2.75-5.28-6.14-9.48-7.1.47-2.82,1.07-5.63.1-8.88,3.11.83,4.77,3,6.57,4.66a114,114,0,0,1,27.74,40A11.76,11.76,0,0,1,257.67,444.29Z" transform="translate(-42.7 -156.59)"/><path class="cls-11" d="M540.5,298.66c-9.12,1.12-17.85,2.93-23.12,11.71-2.37,4-3.7,8.33-5.35,12.57a6.3,6.3,0,0,1-2.65-5.84c.73-8.74,4.65-15.68,12.41-20.14a31.82,31.82,0,0,1,5.78-2.8C532.71,292.44,537.4,294,540.5,298.66Z" transform="translate(-42.7 -156.59)"/><path class="cls-9" d="M106.74,269.08c2.32-.09,4.18,1.06,5.91,2.38,3.8,2.92,8.73,10.84,10.13,16.43a64.74,64.74,0,0,0-16-1.42,72.4,72.4,0,0,1-3.43-7.78C102.1,274.78,105,272.09,106.74,269.08Z" transform="translate(-42.7 -156.59)"/><path class="cls-11" d="M487,283.17c-2.73-.11-5.46-.24-8.19-.3-1.44,0-2.4-.4-1.42-2,5.32-8.7,12.18-15.87,23.93-11,1.65.68,3.45,1.26,4,3.3-2,.91-3.89,2.58-5.84,2.6C493.67,275.8,490.61,279.87,487,283.17Z" transform="translate(-42.7 -156.59)"/><path class="cls-11" d="M525.92,282.22c-2.75,0-5.51.06-8.26,0-4.72-.18-7.63,2.31-9.84,6.17-1.27,2.22-2.09,5-5.06,5.71-4.77-4.5-5.18-3.4-1.92-9.17,5.82-10.28,15.5-12.61,24-4.7A2.55,2.55,0,0,1,525.92,282.22Z" transform="translate(-42.7 -156.59)"/><path class="cls-11" d="M85.42,275.18c-4.32,1.28-8.84,2.13-12.12,5.64a3.75,3.75,0,0,0-.57,4.77c4.1,6.24,9.08,11.8,14,17.4-.08,1.44-.9,2.52-1.88,3.94-2.32-2.94-4.16-6-6.71-8.59a49.94,49.94,0,0,0-12-8.79c-1.09-.6-1.9-.93-1.56-2.5,1.62-7.44,12.56-14.27,20.09-12.43C84.91,274.69,85.15,275,85.42,275.18Z" transform="translate(-42.7 -156.59)"/><path class="cls-13" d="M333,433.17c-.44-4-.33-8-.69-12-.69-7.44-2.13-14.82-2-22.34,0-.69-.66-1.39-1-2.08,1.38-1.76,3.65-1.84,5.48-2.61,2.19-.92,1.59,1.3,1.52,2.3a116.91,116.91,0,0,0,.74,25.38C337.74,426.91,336.11,430,333,433.17Z" transform="translate(-42.7 -156.59)"/><path class="cls-12" d="M363.1,359.54c2.16.71,4.27,1.81,6.49,2.06,7,.78,9.3-1.48,11.48-9.76a41.42,41.42,0,0,1,6-13.93c2.1-3,2.43-6.92.81-8.61-2-2.06-6.09-2.2-9.29-.3a18.83,18.83,0,0,1-2.59,1.65c-1.07.43-2.44,1.22-3-.74,4.09-2.87,8.11-5.88,13.52-5.64a5.87,5.87,0,0,1,5.66,6.91,19.28,19.28,0,0,1-3.68,8.38,37.76,37.76,0,0,0-6.41,15.55c-.84,4.83-3.5,8.26-8.37,8.6A12.42,12.42,0,0,1,363.1,359.54Z" transform="translate(-42.7 -156.59)"/><path class="cls-13" d="M350.3,301.34c-1.06-3.29-1.42-6.9-5-8.85a9.47,9.47,0,0,0-4.47-1.37c-7.89-.15-15.73,0-23.37,2.31a.92.92,0,0,1-1.18-.32c.54-2.16,1.75-3.19,4.14-3.59,6.53-1.1,13-2.5,19.47-4,4.07-.93,7.86-.29,10.15,3C352.71,292.5,353.4,297,350.3,301.34Z" transform="translate(-42.7 -156.59)"/><path class="cls-11" d="M106.74,269.08c-1.72,3-4.64,5.7-3.41,9.61a72.4,72.4,0,0,0,3.43,7.78,7,7,0,0,1-1.16.7c-4.76,1.81-4.69,1.78-6.48-2.95a19.49,19.49,0,0,0-6.44-8.64c-2.44-1.88-2.1-3.23.32-4.53C97.32,268.71,101.67,266.32,106.74,269.08Z" transform="translate(-42.7 -156.59)"/><path class="cls-11" d="M125.55,293.37c0,.23-.07.45-.12.68-3.38-.35-6.3-2.42-9.9-2.27-10.6.45-21.65,10.46-23.4,19.43-.54,2.79-1.36,5.53-2,8.29-3.42-3.62-3-8.19-1.43-11.94,4-9.53,13.81-19.1,26.29-17.48C118.59,290.55,122.57,290.51,125.55,293.37Z" transform="translate(-42.7 -156.59)"/><path class="cls-11" d="M308,310.66c4.74-4.27,10.5-4.47,16.43-4.23,7.1.28,14.18.19,20.72-3.27a4.23,4.23,0,0,1,3.63-.09c-2.51,4.68-7.36,5.55-11.74,6.65C327.44,312.14,317.67,311.24,308,310.66Z" transform="translate(-42.7 -156.59)"/><path class="cls-9" d="M230,329.11c-2,.05-3.89,0-4.07-2.69a12.22,12.22,0,0,1,17.11-4.92c1,.6,2,1.12,2.94,1.68,2.53,3.15,1.41,5.74-3,6.85C238.88,327.24,234.7,324.65,230,329.11Z" transform="translate(-42.7 -156.59)"/><path class="cls-13" d="M485,313.48c3,0,5.72,1.66,8.87,1.6s7.15-2.36,8-5.52a39,39,0,0,0,1.63-8.68,16.47,16.47,0,0,1,3.18,8.05c.43,4.08-1,7.56-4.31,9.62-3.81,2.35-8.05,2-12-.28C488.3,317,486.07,315.87,485,313.48Z" transform="translate(-42.7 -156.59)"/><path class="cls-12" d="M355.52,407.77c-2.72.16-2.56,3.77-5,4.22-2.93-.48-3.71,2.19-5.16,3.71a53.76,53.76,0,0,0-3.52,4.95,1.87,1.87,0,0,1-1.45.64c-.77-.1-.48-.88-.49-1.39q-.12-5.47-.19-10.95c0-.78-.14-1.86.91-1.91C345.58,406.76,350.67,404.94,355.52,407.77Z" transform="translate(-42.7 -156.59)"/><path class="cls-9" d="M487,283.17c3.65-3.3,6.71-7.37,12.49-7.42,1.95,0,3.89-1.69,5.84-2.6,1.15.89.47,1.53-.3,2.13a30.92,30.92,0,0,0-8.66,11.17c-.31.65-.56,1.52-1.34.81C492.67,285.15,489.35,285.08,487,283.17Z" transform="translate(-42.7 -156.59)"/><path class="cls-12" d="M356.34,315.25a7.07,7.07,0,0,1-2.56-.72,14.79,14.79,0,0,0-9-3.16c3.36-2.6,5.47-2.5,9.36-.42,5.57,3,11.09,6,16,10,4.14,3.36,4.14,3.35.72,7.3.25-3.88-2.78-5.22-5.34-6.94-2-1.32-3.9-2.66-5.85-4C359,316,358.26,314.65,356.34,315.25Z" transform="translate(-42.7 -156.59)"/><path class="cls-13" d="M92.44,321.19c2.68-1.79,5.86-2,8.86-2.83,5.08-1.4,8.74-4.64,11.59-8.95,1.38-2.09,3.15-2.16,5.09-.75-2.68,1.49-3.72,4.41-5.7,6.53-4,4.29-8.52,7.5-14.61,7.71C95.78,323,93.83,322.82,92.44,321.19Z" transform="translate(-42.7 -156.59)"/><path class="cls-11" d="M66.86,322.92a16.54,16.54,0,0,0,14.76,2C78.86,329.08,73,331,67,329.64c-4.12-.94-8.45-5.12-9-9.19a45,45,0,0,0,4.28,3C63.78,324.31,65.62,325.71,66.86,322.92Z" transform="translate(-42.7 -156.59)"/><path class="cls-13" d="M355.47,300c.2-1.42.17-3.35,2-3.33s1.93,2,2.11,3.34a35.49,35.49,0,0,1,.17,6.1c-.13,3.77-.18,3.77-3.52,1.73C357,305.15,359.43,302.27,355.47,300Z" transform="translate(-42.7 -156.59)"/><path class="cls-9" d="M355.47,300c4,2.24,1.55,5.12.78,7.84-3.06-.31-4.62-1.27-2.3-4.48C354.63,302.44,354.51,301,355.47,300Z" transform="translate(-42.7 -156.59)"/><path class="cls-12" d="M296.48,412.86c-.59-3.87.35-5.3,2.84-4.27,1.64.67,2,2,1.61,3.63C299.05,409.72,297.82,411.63,296.48,412.86Z" transform="translate(-42.7 -156.59)"/><path class="cls-12" d="M169,468.32c1.78,1.46,4.06,1.83,3.13,4.3-.3.79-1.48,1.5-2.24,1.07C167.86,472.54,168.83,470.62,169,468.32Z" transform="translate(-42.7 -156.59)"/><path class="cls-6" d="M103.76,401.91c1.57,1.8,3.14,3.59,4.7,5.39" transform="translate(-42.7 -156.59)"/><path class="cls-11" d="M315.52,400.77c-3.84,1-7.65,2.74-11.55.23Z" transform="translate(-42.7 -156.59)"/><path class="cls-12" d="M268.77,253.43c0,3.7-3.46,3.81-5.53,5.37C264.26,256.17,266.64,254.93,268.77,253.43Z" transform="translate(-42.7 -156.59)"/><path class="cls-12" d="M263.22,258.83c.18.86,2.11.47,1.45,1.75a3.24,3.24,0,0,1-3.72,1.56C261.29,260.75,261.69,259.4,263.22,258.83Z" transform="translate(-42.7 -156.59)"/><path class="cls-10" d="M220.32,396c0,.83-.27,1.39-.91,1.25a2.91,2.91,0,0,1-2.38-2.07c-.18-.7.48-1,1-1A2.53,2.53,0,0,1,220.32,396Z" transform="translate(-42.7 -156.59)"/><path class="cls-11" d="M388.66,610.15c2.19-1.49,4.7-1.41,7.19-1.47C393.67,610.26,391.15,610.1,388.66,610.15Z" transform="translate(-42.7 -156.59)"/><path class="cls-11" d="M377.71,611.66c2.14-1.37,4.51-1.28,6.9-1.09C382.49,612.08,380.08,611.73,377.71,611.66Z" transform="translate(-42.7 -156.59)"/><path class="cls-6" d="M108.45,407.4a3.5,3.5,0,0,1,2,2.3" transform="translate(-42.7 -156.59)"/><path class="cls-12" d="M237.78,498.73c.74,0,1.25.3,1.22,1.09s-.6,1-1.31,1Z" transform="translate(-42.7 -156.59)"/><path class="cls-6" d="M67.37,276.7a3.2,3.2,0,0,1-1.9,1.72" transform="translate(-42.7 -156.59)"/><path class="cls-11" d="M487.29,287.57a4.32,4.32,0,0,1-3-.27A2.18,2.18,0,0,1,487.29,287.57Z" transform="translate(-42.7 -156.59)"/><path class="cls-12" d="M300.83,412.81c.42,1,.05,1.57-.92,1.86A1.38,1.38,0,0,1,300.83,412.81Z" transform="translate(-42.7 -156.59)"/><path class="cls-11" d="M275.69,400.35a1.57,1.57,0,0,1,2,.1A1.68,1.68,0,0,1,275.69,400.35Z" transform="translate(-42.7 -156.59)"/><path class="cls-6" d="M65.23,278.72c-.16.7-.39,1.35-1.23,1.47" transform="translate(-42.7 -156.59)"/><path class="cls-12" d="M361.4,358.14a1.5,1.5,0,0,1,1.75,1.42Z" transform="translate(-42.7 -156.59)"/><path class="cls-12" d="M207.56,600.5c.11-.94.71-1.08,1.49-.9A1.24,1.24,0,0,1,207.56,600.5Z" transform="translate(-42.7 -156.59)"/><path class="cls-6" d="M111.66,410.94l1,1.49" transform="translate(-42.7 -156.59)"/><path class="cls-13" d="M483.91,312.71c.62-.06,1.09.1,1.2.8A1.08,1.08,0,0,1,483.91,312.71Z" transform="translate(-42.7 -156.59)"/><path class="cls-11" d="M397.77,403c.59,0,1.05.09.91.85Z" transform="translate(-42.7 -156.59)"/><path class="cls-11" d="M303.28,311c.31-.55.71-.7,1.23-.25Z" transform="translate(-42.7 -156.59)"/><path class="cls-11" d="M83.17,322.91a2.65,2.65,0,0,1-.07-.48s.15-.07.24-.11A.45.45,0,0,1,83.17,322.91Z" transform="translate(-42.7 -156.59)"/><path class="cls-4" d="M239.82,173.26a2.08,2.08,0,0,1,.37-.46A.53.53,0,0,1,239.82,173.26Z" transform="translate(-42.7 -156.59)"/><path class="cls-14" d="M151.33,340.27l.88.64Z" transform="translate(-42.7 -156.59)"/><path class="cls-11" d="M398.92,404c.36-.21.56,0,.71.28Z" transform="translate(-42.7 -156.59)"/><path class="cls-3" d="M370.57,347.51c0-3.77,4.72-10.39,7.6-11.22.63-.18,1.16-.15,1.44.46a1.58,1.58,0,0,1-.24,1.92c-2.41,1.63-1.53,3.1-.27,5.05a4.34,4.34,0,0,1-.34,5.42c-1.28,1.46-2.6,2.89-4.92,2.21S370.11,349.56,370.57,347.51Z" transform="translate(-42.7 -156.59)"/><path class="cls-13" d="M356.34,315.25c1.92-.6,2.67.71,3.39,2.07A3.85,3.85,0,0,1,356.34,315.25Z" transform="translate(-42.7 -156.59)"/><path class="cls-3" d="M230,329.11c4.67-4.46,8.85-1.87,13,.92.3,1,.61,2,.91,2.93s.64,1.84-.46,2.4a1.87,1.87,0,0,1-2.62-.8c-.76-1.06-1.07-3.11-3.24-1.89-1.76,1-2,2.27-1.07,4,.45.83.64,1.89-.59,2.26a2.38,2.38,0,0,1-2.89-1.18c-1.73-2.67-.26-4.91,1-7C232.86,329.33,229.43,334.8,230,329.11Z" transform="translate(-42.7 -156.59)"/><path class="cls-3" d="M281.24,273.78a4.67,4.67,0,0,1-4.49,5,4.33,4.33,0,0,1-4.7-4.34,4.42,4.42,0,0,1,4.3-4.76C279.1,269.56,281.17,271.3,281.24,273.78Z" transform="translate(-42.7 -156.59)"/><path class="cls-1" d="M162.17,345.77" transform="translate(-42.7 -156.59)"/><path class="cls-3" d="M326.08,594c1.49,0,2.87-2.38,4.46-.2-1.87,1.73-2.45,3.18.54,4.43,1.62.67,1.83,2.18,1.21,3.78-.85,2.23-2.73,3-4.84,3.14a5.71,5.71,0,0,1-5.69-3.05c-1.1-1.94-.53-3.78,1-5.28A43.21,43.21,0,0,1,326.08,594Zm.53,5.13c-.78.1-1.82.08-1.74,1.15.09,1.41,1.35,1.7,2.47,1.89a1.25,1.25,0,0,0,1.64-1.25C329,599.24,327.71,599.29,326.61,599.09Z" transform="translate(-42.7 -156.59)"/><path class="cls-3" d="M355.68,268.85c3,.22,4.49,1.71,4.74,4.27.21,2.08-2.46,4.52-4.52,4.19a4.27,4.27,0,0,1-3.77-4.59A3.55,3.55,0,0,1,355.68,268.85Z" transform="translate(-42.7 -156.59)"/><path class="cls-11" d="M326.61,599.09c1.1.2,2.41.15,2.37,1.79a1.25,1.25,0,0,1-1.64,1.25c-1.12-.19-2.38-.48-2.47-1.89C324.79,599.17,325.83,599.19,326.61,599.09Z" transform="translate(-42.7 -156.59)"/></svg>