<svg id="Capa_1" data-name="Capa 1" xmlns="http://www.w3.org/2000/svg" viewBox="0 0 323.31 396.45"><defs><style>.cls-1{fill:#343129;}.cls-2{fill:#fffefd;}.cls-3{fill:#fcfcfb;}.cls-4{fill:#e0bb8f;}.cls-5{fill:#ededec;}.cls-6{fill:#e79ea3;}.cls-7{fill:#24231a;}.cls-8{fill:#f5d51d;}.cls-9{fill:#daa752;}.cls-10{fill:#f2d31e;}.cls-11{fill:#5d66a9;}.cls-12{fill:#f8f7f6;}.cls-13{fill:#e9cb22;}.cls-14{fill:#adafac;}.cls-15{fill:#9a8728;}.cls-16{fill:#ddc584;}</style></defs><path class="cls-1" d="M376.18,375.82c0,.59-.5,1.25.32,1.75,7.56,4.6,8,11.75,6.5,19.3-1.38,6.86-5.7,11.15-12.76,12.24-2.44.38-2.61,1.74-2.59,3.85q.38,28.69.49,57.41c0,2.25.16,3.62,3,3.88,4.06.37,6.75,3.22,7.87,6.82,3,9.61,6.43,19.29,2.16,29.5-.58,1.38,3.54,13.66,4.67,14.4s1.92-.08,2.84-.25c13-2.45,23.76,1.95,32.39,11.31,15.17,16.45,22.13,36.34,23.19,58.5.11,2.32-.64,3.74-2.72,4.72-.84.4-2.52.7-1.5,2.42h-8a42.83,42.83,0,0,1,4.79-2.4c4.13-1.5,5.77-3.95,5.23-8.63-2.08-18-7.56-34.79-19-49.08-16.07-20.12-42.05-20.44-58.26-.3-14.35,17.83-16.37,38.61-11.76,60.41h-3c-1-7.93-1.82-15.89-1.05-23.86,2.16-22.37,9.65-41.49,32.27-50.92,1.53-.64,2.22-1.2,1.54-2.85-1.3-3.19-2.54-6.4-3.94-10a109.85,109.85,0,0,1-34.35,26,43.23,43.23,0,0,1-16.67,4.68c-3.41.17-5-1-5.53-4.57-.79-5.58-2.22-11.07-3.38-16.59-.17-.83-.42-1.72-1.41-1.77a1.28,1.28,0,0,0-1.25,1.29c-.85,8.35-7,12.92-12.78,17.65-2.6,2.14-3.4,4.48-3.47,7.69-.39,17.87,2,35.51,4,53.19h-2c-.67-1.6-.14-3.59-1.75-5.17l-7.25,5.17h-2c.66-3.75,4.6-3.93,6.69-6.12,1.09-1.13,3-1.52,2.83-3.7-1-10.28-2-20.57-3.06-31.35-9.17,6-17.51,12.19-25.82,18.48-7.63,5.78-9.48,14.25-11.62,22.69h-22c-4.72-2.33-10-1.06-14.87-2.44-3-.85-4.76-.07-6.12,2.44h-3c1.68-1.85,4.1-3.4.66-6.09-1.7-1.33-.77-3.76-.38-5.67a83.51,83.51,0,0,1,5.4-16.56c1.26-2.93,1.53-4.2-2.53-4.89-12.4-2.12-24-6.46-34.25-14.08-5.65-4.21-8.48-9.26-6-16.34.85-2.45.25-4.2-1.6-6.16C147.9,502.83,132.52,467.81,125.09,429c-4.15-21.73-5.94-43.7-1.9-65.52,5.81-31.37,23.27-54.95,50.72-71.19,9.3-5.5,19.85-6.31,30.05-8.48a224.76,224.76,0,0,0,31.57-9.15,46.56,46.56,0,0,0,11.53-5.8c2.93-2.15,6.63-3.38,9.91-2.41,5.12,1.51,7-.77,9.35-4.72,6-10.19,13.7-18.9,24.41-24.36,3.14-1.6,2.75-4.25,3.14-6.72,2.17-13.59,12.58-23.88,25.79-25.33,6.71-.74,31.67,6.22,37.12,10.42,10,7.73,14.07,17.85,11.6,30.31-.59,3,.11,4.81,2.32,6.87A47.71,47.71,0,0,1,386,281.8h-1.84c-4.69-21.69-18.95-34.35-39.1-41.48a157.85,157.85,0,0,0-23.67-5.91c-3.16-.59-5.68-.89-7,3.35-.39-5.1-3.66-4-6.28-3.66-14.72,1.93-25.91,9.72-34.79,21.25s-14.56,24.92-18.87,38.81c-.9,2.86-1.46,5.41-5.35,6-2.84.46-4.32,3.39-5.2,6.23-1.61,5.18-1.09,5.84,4.15,4.93,10.3-1.79,19.79.13,28.34,6.26l-1.29,1.18c-13.65-7.73-27.31-7.82-41-.07l-1.28-1.09a14.44,14.44,0,0,1,3.18-2.23c3.66-1.26,5.16-3.37,5.39-7.5a10.84,10.84,0,0,1,8-10.27c1.66-.5,2.41-1.37,2.14-3.43-5.16,2.92-10,5.73-14.95,8.39-.92.49-2.64,2.46-3-.63a19.91,19.91,0,0,1,3-1.81c11.55-4.62,19.87-12.13,22.44-24.85.4-2,3.22-3.93,1.54-5.78-1.5-1.65-4.37-1.27-6.69-.86a11.79,11.79,0,0,0-4.25,1.31c-12.69,8.21-27.21,11.3-41.48,15.18-8.67,2.36-18,2-26.21,5.94-33.82,16.11-53.17,43.19-57.46,80.11-3.64,31.41,1.65,62.09,12.11,91.81,10.91,31,28.07,58,53.21,79.58,2.75,2.36,4.49,2.37,7.1,0,18.62-16.93,30.92-37.62,37.47-61.85.79-2.94.14-4.89-1.94-7.06-23.18-24.22-37-53.23-44.51-85.71-3.1-13.36-.49-27.9-8.4-40.22-1.18-1.83,1.67-5.78-3-5.82a3.18,3.18,0,0,1,0-1.31c1-3,6.43-5.29,9.58-4.16a10,10,0,0,0-3.12,13.78c2.26,3.81,6.85,4.68,11.89,1.41,10.58-6.86,16.14-17.77,9.57-30.36a39.6,39.6,0,0,0-6.75-9.24c-.82-.83-2.33-1.41-1.54-4.05a28.89,28.89,0,0,1,8.17,8.54c4.95,7.24,6.49,15.12,3.92,23.75a14.59,14.59,0,0,0,7-1.95c1.68.79,1.36,1.76,0,2.4a18.47,18.47,0,0,1-5.11,1.77c-3,.44-5.92,1.09-5.57,4.8.38,3.87,2.32,6.82,6.71,7.41,2.92.39,5.5-.82,8.24-1.33,1.55.66,1.87,1.93,1.69,3.44-.72-1.77-2-1.2-3.31-.87-8.81,2.14-11.35,1-15.89-6.86-3.6,3.24-7.31,6.51-12.4,6.55-2.83,0-3.21,1-3.05,3.49,2.46,36.57,13.69,69.94,35.83,99.42,1.69,2.25,3,4.38,6.08,1.63,1.25-1.1,3.14-.85,4.78-.17a54.72,54.72,0,0,1,19.11,13.16,85.89,85.89,0,0,1,11.3,14.95c5.56-8.33,5.57-8.27,11.95-8.48,1.46-.05,3.66,1,4.16-1.43.42-2.05.77-4.07-1.44-5.82-9.09-7.2-14.2-17-17.3-27.93-.68-2.41-1.59-4.34-4.15-5.67-3.53-1.82-5.05-5.42-4.61-9.29.36-3.22-1.11-3.91-3.72-4.33-4.6-.73-9.2-1.63-13.19-4.26-5.57-3.68-6.38-11.74-1-14.55a19.34,19.34,0,0,0,7.81-7.66l2,0c-1.92,3.1-2.26,7.14-6.72,8.62-5.35,1.77-5.89,7.91-1.29,11.33a21.2,21.2,0,0,0,8.77,3.46c13.86,2.74,27.7,5.69,42,5.36,6.82-.15,13.66.05,20.48.27A43.81,43.81,0,0,1,322.86,431c3,1.27,3.67,2,4.69,5.54-5.44-3.81-11.05-5.3-17-6-17.85-2-36,1.23-53.68-3.67-2.1-.58-2.52.71-2.57,2.5-.14,4.64,2.25,7.61,7.51,9.17,1.13.33,3.65.43,2.66,1.77-3.65,4.93.34,8.62,1.89,12.22,12.2,28.34,44.13,35.28,66.51,14.72,3.21-2.95,5.72-6.47,8.35-9.91l1.9.4c-11.22,21.32-32.47,27.75-60.81,18.27-.33,4.32-.68,8.59-1,12.86-.1,1.31-.32,2.7,1.35,3.34,4.27,1.64,5.34,5.3,5.42,9.28,0,2.68.82,3.5,3.5,2.9a21.24,21.24,0,0,1,12.74,1c1,.39,2,1.18,3.14-.08,7.16-8.21,17.44-9.83,27.11-12.69,8.92-2.64,18-4.73,26.28-9.28,3.37-1.86,5.16-4.14,5.11-8.24-.21-19.15-.14-38.3-.28-57.45,0-3.64.88-7.81-5.13-9.92,4.57-.47,7.73-.48,10.73-1.16,7.37-1.66,11.2-8.95,9.87-18.27-1-7-4.95-9.92-13.09-9.71,1.4-1.6,4.85-.74,4.78-1.05C371.82,372.66,375.24,376.58,376.18,375.82Zm-91.13,136c-.47-1.26,2.32-1.74.81-3.3-2.36.57-3.57,2.4-4.65,4.26-1.8,3.12,1,1.41,1.88,1.73a2.37,2.37,0,0,1-.74,2.71c-6.1,5.61-4.29,12-1.65,18.34.6,1.45,1.11,3.67,3.3,2.93,2.92-1,6.79,1.7,8.87-2.3a34,34,0,0,1,18.86-16.93c1.92-.71,2.07-1.43,1.42-3.23-2.5-6.94-16.46-13.86-22.9-6.5C289,511,287.35,512.39,285.05,511.86Zm-22,71.9a8.81,8.81,0,0,0,2.38-4.66c-4.15-2-9-.86-14.09-3.44a21.61,21.61,0,0,1,10.5.4c3.77.92,5.16-.13,6.45-3.61,2.9-7.78,3.09-7.6-5-9.47-2.84-.66-4.45-.22-4.71,2.91-.21,2.59-1.74,3.3-4.11,2.85-2.12-.41-4.26-.74-6.39-1.09-1.34-.22-2.38-.85-1.74-2.31,2.43-5.53-1.7-5.09-4.9-5.49s-6.6-.79-9.9-1.14c-1.73-.18-3.14,0-4,2a174,174,0,0,0-11.17,29.79c-.81,3.13.47,5.23,3.62,5.88A89.8,89.8,0,0,0,230.21,598c8.28.72,16.58,1.15,24.86,1.85,2.15.19,3.23-.72,3.47-2.56.33-2.71-2.05-1.26-3.13-1.76-2.84-1.3-6.48-.2-9.51-3.09,4.44-.75,8.08.59,11.64,1.39,3,.67,2.85-1.44,3.44-2.87,1-2.48-1.11-1.88-2.39-2.35-3-1.1-6.59.1-9.53-2.63,4-1.11,7.36.34,10.7.89s3.31-1,3.33-3.2Zm-79.15-31.58c11,8.37,23.26,12.43,36.35,14.62,3.07.52,3.26-2,3.74-3.65,1.65-5.61,5.07-7.78,10.75-6.37,2,.5,3.34.33,4-2.15a98.37,98.37,0,0,1,14.15-29.53,3.29,3.29,0,0,0,.53-3.64c-3.89-8.49-.6-15.68,3.92-22.83,5.58-8.84,5.44-8.93-.88-17.12-.81-1.05-1.63-2.1-2.51-3.1-4.78-5.43-9.82-10.55-16.84-14.08C242.41,490.73,208.18,546.22,183.86,552.18ZM380.92,503c-.83-6.58-.93-13.31-3.26-19.63-1.31-3.52-3.2-6.69-7.49-7.17-1.52-.17-2.17.46-1.53,1.2,2,2.31-.31,3-1.28,3.9-3.7,3.46-8.19,5.65-12.85,7.5-8.69,3.42-17.82,5.33-26.72,8-5.88,1.79-11.82,3.57-16.57,7.76-.91.8-2.66,1.64-1.89,3.07.64,1.2,2.48,2.9,3.29,2.67,4.26-1.24,4.79,2.08,5.77,4.47,2.87,6.95,4.29,14.32,5.64,21.68,1.25,6.78,1.53,7.27,8.32,5.42,19-5.16,34-16.35,46.17-31.5C380.18,508.37,381.41,505.93,380.92,503ZM254.64,526.25a109.42,109.42,0,0,0-13.89,28.8c-.63,2.08.07,2.24,1.79,2.9,5.18,2,6.11-1.1,7-5,1.55-6.68,6.16-1.79,9.26-2,3.54-.24,2.66,2.88,1.95,4.72-1.43,3.68-.19,5.15,3.47,5.46a13.18,13.18,0,0,1,3.84,1c2.66,1.08,4.14.59,5.18-2.38,2-5.65,4.42-11.12,6.65-16.67.48-1.2,1.08-2.27.2-3.71a27,27,0,0,1-2.84-22.56c.37-1.27.39-2.31-.94-2.9-1.55-.69-2,.64-2.63,1.57-4,6-7.85,12-9.61,19-.7,2.81-1.84,2.78-3.66.95C257.94,532.9,256.85,529.49,254.64,526.25Zm23.93-36.79c1.15-6,1.11-6.95-.31-7.57-3.32-1.46-8.72.65-10.7,4-2.92,5-6,9.94-8.94,14.94-6.45,10.95-5.35,22.24,3.25,32.5,3.9-10.87,10.18-20.18,17.41-28.9.93-1.12,1.94-3.17,3.31-2.68,3.84,1.4,2.47-1.64,2.55-2.89.22-3.09-2.15-4.08-4.58-5-4.79-1.87-6.08-4.42-4.6-8.66C278,485.88,276.44,488.82,278.57,489.46ZM350,239.69c.88-10.43-2.06-18.93-9.79-25.62-1.44-1.25-2.88-2-5-1.31a28.18,28.18,0,0,0-17.89,16.14c-.65,1.47-1,2.71,1.5,3A135.47,135.47,0,0,1,350,239.69Zm-81.31,337.4.77.45c6.58-4.76,12.79-10.19,19.85-14.09s9.45-8.86,8.85-16.7c-.33-4.22-2.67-5.21-5.44-5.65-3.51-.57-8.24-2.54-10.24,2C277.54,554.27,273.24,565.73,268.69,577.09Zm66-366.77c-10-3.83-18.9-4.3-27.2,1.84-7.45,5.52-11.17,13-11.87,22.78,5.66-2,10.65-3.2,15.85-3.26,1.36,0,2.72.06,3.25-1.58C317.8,220.39,324.8,214.43,334.65,210.32Zm6.69,1.7c8.29,7.64,11.61,16.32,10.92,26.52-.08,1.27.11,2.28,1.3,2.92L365.7,248C370.19,230.49,358.79,213.14,341.34,212ZM313.78,521.13c-7.9,2.43-13.47,7.33-17.58,14-.72,1.16-3.32,2.82-.5,4.43,1.87,1.07,3.77,2.63,6.05.06,2.73-3.08,6.1-5.6,8.84-8.67C312.9,528.33,314.45,525.21,313.78,521.13Zm-59.26,31.31c-2.08-.73-2.75.51-3.18,2.11-.69,2.55-1.23,5.15-2.12,7.63-1,2.75.07,3.53,2.66,4.06,3,.61,4.75.29,5.13-3.11a23.59,23.59,0,0,1,1.21-5.79C259.7,553.46,258,552.27,254.52,552.44Zm-75.18-16.27c-.4,5-3,9.73,1.5,12.73,3.41,2.27,6.79-.3,10.16-2.3Zm55.87-62.55c.21-4.39.31-7.6-1.73-10.41-1.45-2-3.26-1.81-5.18-.56-2.46,1.59-.54,2.76.4,3.87C230.5,468.63,232.44,470.62,235.21,473.62Zm47.49,31.22c-2.56,1.08-3.49,3.49-5.06,5.27-.45.51-.65,1.17.07,1.67.36.25,1,.71,1.2,0C279.81,509.36,283.64,508.5,282.7,504.84Zm5,3.66.34-.31a2.77,2.77,0,0,0-.64-.28c-.08,0-.21.18-.31.28Z" transform="translate(-120.92 -205.22)"/><path class="cls-2" d="M353,601.67c-4.61-21.8-2.59-42.58,11.76-60.41,16.21-20.14,42.19-19.82,58.26.3,11.41,14.29,16.89,31,19,49.08.54,4.68-1.1,7.13-5.23,8.63a42.83,42.83,0,0,0-4.79,2.4Z" transform="translate(-120.92 -205.22)"/><path class="cls-3" d="M304.07,601.67c-2-17.68-4.43-35.32-4-53.19.07-3.21.87-5.55,3.47-7.69,5.74-4.73,11.93-9.3,12.78-17.65a1.28,1.28,0,0,1,1.25-1.29c1,0,1.24.94,1.41,1.77,1.16,5.52,2.59,11,3.38,16.59.5,3.61,2.12,4.74,5.53,4.57a43.23,43.23,0,0,0,16.67-4.68,109.85,109.85,0,0,0,34.35-26c1.4,3.56,2.64,6.77,3.94,10,.68,1.65,0,2.21-1.54,2.85-22.62,9.43-30.11,28.55-32.27,50.92-.77,8,.07,15.93,1.05,23.86Z" transform="translate(-120.92 -205.22)"/><path class="cls-4" d="M260.09,601.67c2.14-8.44,4-16.91,11.62-22.69,8.31-6.29,16.65-12.51,25.82-18.48,1,10.78,2,21.07,3.06,31.35.21,2.18-1.74,2.57-2.83,3.7-2.09,2.19-6,2.37-6.69,6.12Z" transform="translate(-120.92 -205.22)"/><path class="cls-5" d="M217.11,601.67c1.36-2.51,3.14-3.29,6.12-2.44,4.83,1.38,10.15.11,14.87,2.44Z" transform="translate(-120.92 -205.22)"/><path class="cls-6" d="M293.07,601.67l7.25-5.17c1.61,1.58,1.08,3.57,1.75,5.17Z" transform="translate(-120.92 -205.22)"/><path class="cls-7" d="M376.18,375.82c-.94.76-4.36-3.16-3.36,1.77.07.31-3.38-.55-4.78,1.05-.59.16-1.25.77-1.76,0-.61-.9.08-1.48.71-2,2.17,0,3.74-.55,4.12-3.21.93-6.39,2.19-12.73,3.17-19.12a11.79,11.79,0,0,0-.94-7.14c-1.54,9.32-2.86,17.16-4.13,25-.3,1.87-.33,3.93-3.2,2.7-.43-.22.81-4.34-1.27-.61-2.7,4.85-6.16,9.18-11.65,10.2-14.86,2.76-29.49,2-43.21-5.19a18.16,18.16,0,0,1-9.55-12.17A64.35,64.35,0,0,1,298,349.88c0-1.52.18-3.23-2.06-3.14-1.72.06-4.17-1.38-5,.58-1,2.35-.42,5.37-1.39,7.74-1.14,2.78-.57,4.64,1.75,6.7-5.57-.43-10.76-1.47-16,.07-6.76,2-9.69,6.67-8.26,13.62,1.89,9.19,14.46,14.89,24.17,10.66A16.74,16.74,0,0,1,300.9,385a62.53,62.53,0,0,1,29.38,12.81c9.52,7.58,16.39,16.91,18,29.4.15.49.31,1,.46,1.46,1.44,10.33.34,20.17-5.63,29.07l-1.9-.4a41.81,41.81,0,0,0,5.25-29.26c-3.69-20.2-21.61-36.74-43.64-40.41a21,21,0,0,0-12.11,1c-7.32,3-18.06-.08-23-6.51-1.85-2.4-3.24-2.48-5.69-1.53a26.08,26.08,0,0,0-8.92,6.19c-3.54,3.56-6.1,7.85-9,11.91l-2,0a43.55,43.55,0,0,1-.91-16.77c.59-3.64-.39-5-3.93-6.17-9.16-2.9-15.87-8.27-16.13-18.94.18-1.51-.14-2.78-1.69-3.44.95-6.24,2.38-12.61-4.08-17.09-.48-3.84.18-7.35,4.63-8,4.78-.66,5.31-3.76,5.22-7.45-.16-6-3.62-10.54-6.7-15.28-.86-1.32-3.13-2.28-1.76-4.63,3.44,1.11,3.55,6.62,6.88,6.34,3-.26,5.83-2.9,8.74-4.49l1.38-1c2.15,2.9-1.1,2.75-2.18,3.54-2.13,1.56-5.23,2.28-6.59,4.26-1.53,2.25,1.59,4.59,1.91,7.12.2,1.56.48,3.11.77,4.94l5.22-4.08,1.28,1.09c-2.3,2.45-5.45,4.29-6.1,8.21h4.71c14.5,0,28.93.74,43.21,3.5,4.59.89,7.7,2.88,8.46,7.76.19,1.18.16,3,2.24,2.43,1.81-.52.72-2,.54-2.93-1.52-7.88-6-13.93-12.08-18.9l1.29-1.18c7,4.46,10.72,11.12,12.8,18.89.55,2.05.49,4.42,3.71,4.15,2.87-.23,6,1.51,7.68-3,1.51-4.1,2.91-8.4,6.22-11.78a35.65,35.65,0,0,1,43.06-6.18c6,3.45,11.19,7.79,14.54,14,1.64,3,4.88,3.84,7.53,3.87,1.8,0,.71-3.48,1.56-5.21s-.43-4.39,2.32-5.81c1.46,4,0,8.08,1.38,13,6.18-18.27,9.12-35.91,7.67-54.19-.15-.47-.29-.94-.44-1.41l-.27-2.07H386a.76.76,0,0,1,.11.89c-.12,1.09-.29,2.18.61,3.07.12,1.67.24,3.35.35,5v11l-.31,5.07c-1.1,1.22-.7,2.67-.63,4.07-.73,9.66-3.24,19-6.43,28-1.46,4.17-1.15,7,1.7,10.05a31,31,0,0,1,2.37,3.21c2.31-1.18,1.53-4.49,3.95-5.41.27.26.73.52.7.69-1.67,10,3,19.11,3.53,28.78.13,2.38,1.28,5.83-2.22,6.08-3.24.22-4.23-3.22-4.6-6s0-5.3-.06-7.95a7.61,7.61,0,0,0-2.34-5.94C379.88,366.74,379.18,371.85,376.18,375.82Zm-7.71-19.29a6.67,6.67,0,0,0,.26,5.41c.44-2.27.73-3.81,1-5.35.42-2.93.8-5.86,1.26-8.79.33-2.15-.16-3.69-2.89-4.35C368.39,348,369,352.28,368.47,356.53ZM341.05,336.6c1.22,3.63.87,6.26-1.83,8.16a5,5,0,0,1-6.07.12c-2.46-1.69-3.44-3.95-2.29-6.91.88-2.25-.79-2-2.1-2.06a97.92,97.92,0,0,0-16.93.82c-5,.73-7.18,3.5-7.75,8.21-.73,6-.05,11.93,1,17.86,1.23,6.71,5,10.86,11.29,13.36,9.54,3.81,19.43,4.17,29.46,3.65,8.28-.43,12.51-3.56,15-11.41,2.63-8.25,2.33-16.74,1.66-25.25a3.15,3.15,0,0,0-3-3.28C353.65,338.88,347.78,337.8,341.05,336.6Zm-61.77,12.69c0-1.17,0-2.33,0-3.49-.1-9.08-.1-9.09-9.12-10.66-2.45-.42-4.94-.64-7.39-1.06s-4.36-.54-4.88,2.85c-.32,2.06-2.38,3.06-4.61,3.1s-4.63-.87-4.71-2.84c-.24-5.58-4.07-4.32-7.26-4.42-3-.09-6,.23-9-.09-4.22-.46-5.62,1.86-6.18,5.38-1.06,6.64-.4,13.2.58,19.81.8,5.36,3.68,8.68,8.29,11,8.13,4,16.91,4.43,25.71,4.87,2.31.11,3.44-.27,3.73-3,.54-5.27,3.71-9.5,8.8-10.23,5.94-.85,6.69-3.9,6-8.66A18.8,18.8,0,0,1,279.28,349.29Zm25.63-17.15c3.89-.57,7-1.18,10.08-1.46,14.18-1.3,28.16.24,42.07,2.93,1.22.23,2.81,1.05,3.72-.18s-.45-2.13-1.17-3C342.25,310.18,317.65,314.65,304.91,332.14Zm-46.13,47.44c-5.23-.62-9.12-1-13-1.58a1.82,1.82,0,0,0-2.35,1.83c-.52,4.84-1,9.69.31,15.17C248.07,389.16,251.86,383.72,258.78,379.58Zm117.85-10.16c5.46-9.9,5.44-11.19,0-15.82Zm-91.56-11.05c2.59-2.85,3.17-6.11,3.12-9.53,0-1,.45-2.48-1.52-2.31-1.65.14-1.61,1.29-1.61,2.48C285.08,352.13,285.07,355.25,285.07,358.37ZM374,367.81c-1.24,1.28-1,2.22-.49,4C374.82,370,374.62,369,374,367.81Z" transform="translate(-120.92 -205.22)"/><path class="cls-1" d="M387,301.76v-11A35.71,35.71,0,0,1,387,301.76Z" transform="translate(-120.92 -205.22)"/><path class="cls-1" d="M386.08,310.9c-.07-1.4-.47-2.85.63-4.07A6.59,6.59,0,0,1,386.08,310.9Z" transform="translate(-120.92 -205.22)"/><path class="cls-1" d="M386.68,285.76c-.9-.89-.73-2-.61-3.07A4.06,4.06,0,0,1,386.68,285.76Z" transform="translate(-120.92 -205.22)"/><path class="cls-8" d="M232.3,302.83c-2.91,1.59-5.72,4.23-8.74,4.49-3.33.28-3.44-5.23-6.88-6.34-1.37,2.35.9,3.31,1.76,4.63,3.08,4.74,6.54,9.29,6.7,15.28.09,3.69-.44,6.79-5.22,7.45-4.45.63-5.11,4.14-4.63,8l-.21,2a14.59,14.59,0,0,1-7,1.95c2.57-8.63,1-16.51-3.92-23.75A28.89,28.89,0,0,0,196,308c-.79,2.64.72,3.22,1.54,4.05a39.6,39.6,0,0,1,6.75,9.24c6.57,12.59,1,23.5-9.57,30.36-5,3.27-9.63,2.4-11.89-1.41A10,10,0,0,1,186,336.48c-3.15-1.13-8.55,1.2-9.58,4.16a3.18,3.18,0,0,0,0,1.31c4.71,0,1.86,4,3,5.82,7.91,12.32,5.3,26.86,8.4,40.22,7.54,32.48,21.33,61.49,44.51,85.71,2.08,2.17,2.73,4.12,1.94,7.06-6.55,24.23-18.85,44.92-37.47,61.85-2.61,2.37-4.35,2.36-7.1,0-25.14-21.6-42.3-48.54-53.21-79.58-10.46-29.72-15.75-60.4-12.11-91.81,4.29-36.92,23.64-64,57.46-80.11,8.2-3.9,17.54-3.58,26.21-5.94,14.27-3.88,28.79-7,41.48-15.18a11.79,11.79,0,0,1,4.25-1.31c2.32-.41,5.19-.79,6.69.86,1.68,1.85-1.14,3.76-1.54,5.78-2.57,12.72-10.89,20.23-22.44,24.85a19.91,19.91,0,0,0-3,1.81l.13-.21Z" transform="translate(-120.92 -205.22)"/><path class="cls-8" d="M384.83,285.28c1.45,18.28-1.49,35.92-7.67,54.19-1.42-4.87.08-9-1.38-13-2.75,1.42-1.45,4-2.32,5.81s.24,5.24-1.56,5.21c-2.65,0-5.89-.83-7.53-3.87-3.35-6.2-8.54-10.54-14.54-14a35.65,35.65,0,0,0-43.06,6.18c-3.31,3.38-4.71,7.68-6.22,11.78-1.68,4.54-4.81,2.8-7.68,3-3.22.27-3.16-2.1-3.71-4.15-2.08-7.77-5.82-14.43-12.8-18.89-8.55-6.13-18-8.05-28.34-6.26-5.24.91-5.76.25-4.15-4.93.88-2.84,2.36-5.77,5.2-6.23,3.89-.64,4.45-3.19,5.35-6,4.31-13.89,9.92-27.17,18.87-38.81S293.36,236,308.08,234.1c2.62-.34,5.89-1.44,6.28,3.66,1.31-4.24,3.83-3.94,7-3.35A157.85,157.85,0,0,1,345,240.32c20.15,7.13,34.41,19.79,39.1,41.48l.27,2.07C384.54,284.34,384.68,284.81,384.83,285.28Z" transform="translate(-120.92 -205.22)"/><path class="cls-9" d="M244.07,398.76c2.88-4.06,5.44-8.35,9-11.91a26.08,26.08,0,0,1,8.92-6.19c2.45-1,3.84-.87,5.69,1.53,5,6.43,15.7,9.53,23,6.51a21,21,0,0,1,12.11-1c22,3.67,39.95,20.21,43.64,40.41a41.81,41.81,0,0,1-5.25,29.26c-2.63,3.44-5.14,7-8.35,9.91-22.38,20.56-54.31,13.62-66.51-14.72-1.55-3.6-5.54-7.29-1.89-12.22,1-1.34-1.53-1.44-2.66-1.77-5.26-1.56-7.65-4.53-7.51-9.17.05-1.79.47-3.08,2.57-2.5,17.64,4.9,35.83,1.69,53.68,3.67,6,.66,11.6,2.15,17,6-1-3.49-1.65-4.27-4.69-5.54a43.81,43.81,0,0,0-15.57-3.18c-6.82-.22-13.66-.42-20.48-.27-14.28.33-28.12-2.62-42-5.36a21.2,21.2,0,0,1-8.77-3.46c-4.6-3.42-4.06-9.56,1.29-11.33C241.81,405.9,242.15,401.86,244.07,398.76Z" transform="translate(-120.92 -205.22)"/><path class="cls-10" d="M367,376.65c-.63.53-1.32,1.11-.71,2,.51.75,1.17.14,1.76,0,8.14-.21,12.09,2.72,13.09,9.71,1.33,9.32-2.5,16.61-9.87,18.27-3,.68-6.16.69-10.73,1.16,6,2.11,5.1,6.28,5.13,9.92.14,19.15.07,38.3.28,57.45.05,4.1-1.74,6.38-5.11,8.24-8.27,4.55-17.36,6.64-26.28,9.28-9.67,2.86-19.95,4.48-27.11,12.69-1.11,1.26-2.15.47-3.14.08a21.24,21.24,0,0,0-12.74-1c-2.68.6-3.46-.22-3.5-2.9-.08-4-1.15-7.64-5.42-9.28-1.67-.64-1.45-2-1.35-3.34.3-4.27.65-8.54,1-12.86,28.34,9.48,49.59,3.05,60.81-18.27,6-8.9,7.07-18.74,5.63-29.07-.15-.49-.31-1-.46-1.46-1.58-12.49-8.45-21.82-18-29.4A62.53,62.53,0,0,0,300.9,385a16.74,16.74,0,0,0-9.72,1.09c-9.71,4.23-22.28-1.47-24.17-10.66-1.43-6.95,1.5-11.62,8.26-13.62,5.23-1.54,10.42-.5,16-.07-2.32-2.06-2.89-3.92-1.75-6.7,1-2.37.39-5.39,1.39-7.74.83-2,3.28-.52,5-.58,2.24-.09,2.1,1.62,2.06,3.14a64.35,64.35,0,0,0,2.37,17.23,18.16,18.16,0,0,0,9.55,12.17c13.72,7.2,28.35,8,43.21,5.19,5.49-1,9-5.35,11.65-10.2,2.08-3.73.84.39,1.27.61C366.34,375.47,366.67,376.06,367,376.65Zm9.89,13.86c-4.62-3-8.36-1.57-11.75,1.15-2.11,1.7-3.62,3.88-3,7,2.28-.4,1.85-2,2.45-2.86,1.23-1.81,2.6-4.22,4.84-3.67,2.7.67,1.71,3.48,1.61,5.56,0,.75-.46,1.64.63,2.06C376.62,398.36,369.56,390.82,376.88,390.51Z" transform="translate(-120.92 -205.22)"/><path class="cls-3" d="M221.06,356.85c.26,10.67,7,16,16.13,18.94,3.54,1.12,4.52,2.53,3.93,6.17a43.55,43.55,0,0,0,.91,16.77,19.34,19.34,0,0,1-7.81,7.66c-5.39,2.81-4.58,10.87,1,14.55,4,2.63,8.59,3.53,13.19,4.26,2.61.42,4.08,1.11,3.72,4.33-.44,3.87,1.08,7.47,4.61,9.29,2.56,1.33,3.47,3.26,4.15,5.67,3.1,11,8.21,20.73,17.3,27.93,2.21,1.75,1.86,3.77,1.44,5.82-.5,2.45-2.7,1.38-4.16,1.43-6.38.21-6.39.15-11.95,8.48a85.89,85.89,0,0,0-11.3-14.95A54.72,54.72,0,0,0,233.1,460c-1.64-.68-3.53-.93-4.78.17-3.09,2.75-4.39.62-6.08-1.63-22.14-29.48-33.37-62.85-35.83-99.42-.16-2.45.22-3.46,3.05-3.49,5.09,0,8.8-3.31,12.4-6.55,4.54,7.9,7.08,9,15.89,6.86C219.07,355.65,220.34,355.08,221.06,356.85Z" transform="translate(-120.92 -205.22)"/><path class="cls-3" d="M183.86,552.18c24.32-6,58.55-61.45,53.24-87.85,7,3.53,12.06,8.65,16.84,14.08.88,1,1.7,2,2.51,3.1,6.32,8.19,6.46,8.28.88,17.12-4.52,7.15-7.81,14.34-3.92,22.83a3.29,3.29,0,0,1-.53,3.64,98.37,98.37,0,0,0-14.15,29.53c-.69,2.48-2,2.65-4,2.15-5.68-1.41-9.1.76-10.75,6.37-.48,1.61-.67,4.17-3.74,3.65C207.12,564.61,194.82,560.55,183.86,552.18Z" transform="translate(-120.92 -205.22)"/><path class="cls-3" d="M380.92,503c.49,2.9-.74,5.34-2.4,7.41-12.2,15.15-27.18,26.34-46.17,31.5-6.79,1.85-7.07,1.36-8.32-5.42-1.35-7.36-2.77-14.73-5.64-21.68-1-2.39-1.51-5.71-5.77-4.47-.81.23-2.65-1.47-3.29-2.67-.77-1.43,1-2.27,1.89-3.07,4.75-4.19,10.69-6,16.57-7.76,8.9-2.71,18-4.62,26.72-8,4.66-1.85,9.15-4,12.85-7.5,1-.92,3.27-1.59,1.28-3.9-.64-.74,0-1.37,1.53-1.2,4.29.48,6.18,3.65,7.49,7.17C380,489.72,380.09,496.45,380.92,503Z" transform="translate(-120.92 -205.22)"/><path class="cls-11" d="M263.09,583.69c0,2.2-.1,3.72-3.33,3.2s-6.72-2-10.7-.89c2.94,2.73,6.57,1.53,9.53,2.63,1.28.47,3.4-.13,2.39,2.35-.59,1.43-.4,3.54-3.44,2.87-3.56-.8-7.2-2.14-11.64-1.39,3,2.89,6.67,1.79,9.51,3.09,1.08.5,3.46-.95,3.13,1.76-.24,1.84-1.32,2.75-3.47,2.56-8.28-.7-16.58-1.13-24.86-1.85a89.8,89.8,0,0,1-10.28-1.66c-3.15-.65-4.43-2.75-3.62-5.88a174,174,0,0,1,11.17-29.79c.9-1.93,2.31-2.16,4-2,3.3.35,6.6.72,9.9,1.14s7.33,0,4.9,5.49c-.64,1.46.4,2.09,1.74,2.31,2.13.35,4.27.68,6.39,1.09,2.37.45,3.9-.26,4.11-2.85.26-3.13,1.87-3.57,4.71-2.91,8.07,1.87,7.88,1.69,5,9.47-1.29,3.48-2.68,4.53-6.45,3.61a21.61,21.61,0,0,0-10.5-.4c5.05,2.58,9.94,1.43,14.09,3.44a8.81,8.81,0,0,1-2.38,4.66c-1-3.17-7.35-4.73-12.39-2.83C254.69,583.1,259.21,582.08,263.09,583.69Zm-33.4-16.4c-2.14-.76-2.78,1.17-3.37,3.21-1.77,6-3.33,12.14-5.44,18.06-1.06,3,.22,3.43,2.48,3.81,5.23.88,10.48,1.62,15.64,2.78,2.63.6,3.28-.71,3.75-2.63,1.53-6.1,2.87-12.25,4.59-18.3.72-2.53.27-3.69-2.33-4.13C240.12,569.27,235.25,568.31,229.69,567.29Z" transform="translate(-120.92 -205.22)"/><path class="cls-12" d="M254.64,526.25c2.21,3.24,3.3,6.65,5.8,9.16,1.82,1.83,3,1.86,3.66-.95,1.76-7.05,5.65-13.07,9.61-19,.62-.93,1.08-2.26,2.63-1.57,1.33.59,1.31,1.63.94,2.9a27,27,0,0,0,2.84,22.56c.88,1.44.28,2.51-.2,3.71-2.23,5.55-4.67,11-6.65,16.67-1,3-2.52,3.46-5.18,2.38a13.18,13.18,0,0,0-3.84-1c-3.66-.31-4.9-1.78-3.47-5.46.71-1.84,1.59-5-1.95-4.72-3.1.22-7.71-4.67-9.26,2-.92,3.93-1.85,7-7,5-1.72-.66-2.42-.82-1.79-2.9A109.42,109.42,0,0,1,254.64,526.25Z" transform="translate(-120.92 -205.22)"/><path class="cls-12" d="M278.57,489.46c-2.13-.64-.55-3.58-2.61-4.26-1.48,4.24-.19,6.79,4.6,8.66,2.43,1,4.8,1.95,4.58,5-.08,1.25,1.29,4.29-2.55,2.89-1.37-.49-2.38,1.56-3.31,2.68-7.23,8.72-13.51,18-17.41,28.9-8.6-10.26-9.7-21.55-3.25-32.5,2.94-5,6-9.92,8.94-14.94,2-3.39,7.38-5.5,10.7-4C279.68,482.51,279.72,483.5,278.57,489.46Z" transform="translate(-120.92 -205.22)"/><path class="cls-4" d="M285.05,511.86c2.3.53,3.92-.82,5.2-2.29,6.44-7.36,20.4-.44,22.9,6.5.65,1.8.5,2.52-1.42,3.23a34,34,0,0,0-18.86,16.93c-2.08,4-5.95,1.33-8.87,2.3-2.19.74-2.7-1.48-3.3-2.93-2.64-6.38-4.45-12.73,1.65-18.34a2.37,2.37,0,0,0,.74-2.71C283.75,513.66,284.4,512.76,285.05,511.86Z" transform="translate(-120.92 -205.22)"/><path class="cls-12" d="M275.07,318.81c6.11,5,10.56,11,12.08,18.9.18.94,1.27,2.41-.54,2.93-2.08.59-2.05-1.25-2.24-2.43-.76-4.88-3.87-6.87-8.46-7.76-14.28-2.76-28.71-3.51-43.21-3.5H228c.65-3.92,3.8-5.76,6.1-8.21C247.76,311,261.42,311.08,275.07,318.81Z" transform="translate(-120.92 -205.22)"/><path class="cls-6" d="M268.69,577.09c4.55-11.36,8.85-22.82,13.79-34,2-4.52,6.73-2.55,10.24-2,2.77.44,5.11,1.43,5.44,5.65.6,7.84-1.78,12.8-8.85,16.7s-13.27,9.33-19.85,14.09Z" transform="translate(-120.92 -205.22)"/><path class="cls-13" d="M215.08,338.36l.21-2c6.46,4.48,5,10.85,4.08,17.09-2.74.51-5.32,1.72-8.24,1.33-4.39-.59-6.33-3.54-6.71-7.41-.35-3.71,2.56-4.36,5.57-4.8a18.47,18.47,0,0,0,5.11-1.77C216.44,340.12,216.76,339.15,215.08,338.36Z" transform="translate(-120.92 -205.22)"/><path class="cls-6" d="M313.78,521.13c.67,4.08-.88,7.2-3.19,9.79-2.74,3.07-6.11,5.59-8.84,8.67-2.28,2.57-4.18,1-6.05-.06-2.82-1.61-.22-3.27.5-4.43C300.31,528.46,305.88,523.56,313.78,521.13Z" transform="translate(-120.92 -205.22)"/><path class="cls-14" d="M254.52,552.44c3.49-.17,5.18,1,3.7,4.9a23.59,23.59,0,0,0-1.21,5.79c-.38,3.4-2.18,3.72-5.13,3.11-2.59-.53-3.65-1.31-2.66-4.06.89-2.48,1.43-5.08,2.12-7.63C251.77,553,252.44,551.71,254.52,552.44Z" transform="translate(-120.92 -205.22)"/><path class="cls-5" d="M179.34,536.17,191,546.6c-3.37,2-6.75,4.57-10.16,2.3C176.33,545.9,178.94,541.2,179.34,536.17Z" transform="translate(-120.92 -205.22)"/><path class="cls-5" d="M235.21,473.62c-2.77-3-4.71-5-6.51-7.1-.94-1.11-2.86-2.28-.4-3.87,1.92-1.25,3.73-1.42,5.18.56C235.52,466,235.42,469.23,235.21,473.62Z" transform="translate(-120.92 -205.22)"/><path class="cls-6" d="M282.7,504.84c.94,3.66-2.89,4.52-3.79,7-.24.67-.84.21-1.2,0-.72-.5-.52-1.16-.07-1.67C279.21,508.33,280.14,505.92,282.7,504.84Z" transform="translate(-120.92 -205.22)"/><path class="cls-6" d="M285.05,511.86c-.65.9-1.3,1.8-2,2.69-.86-.32-3.68,1.39-1.88-1.73,1.08-1.86,2.29-3.69,4.65-4.26C287.37,510.12,284.58,510.6,285.05,511.86Z" transform="translate(-120.92 -205.22)"/><path class="cls-6" d="M287.71,508.5l-.61-.31c.1-.1.23-.3.31-.28a2.77,2.77,0,0,1,.64.28Z" transform="translate(-120.92 -205.22)"/><path class="cls-3" d="M341.05,336.6c6.73,1.2,12.6,2.28,18.48,3.27a3.15,3.15,0,0,1,3,3.28c.67,8.51,1,17-1.66,25.25-2.5,7.85-6.73,11-15,11.41-10,.52-19.92.16-29.46-3.65-6.27-2.5-10.06-6.65-11.29-13.36-1.08-5.93-1.76-11.83-1-17.86.57-4.71,2.76-7.48,7.75-8.21a97.92,97.92,0,0,1,16.93-.82c1.31,0,3-.19,2.1,2.06-1.15,3-.17,5.22,2.29,6.91a5,5,0,0,0,6.07-.12C341.92,342.86,342.27,340.23,341.05,336.6Z" transform="translate(-120.92 -205.22)"/><path class="cls-3" d="M279.28,349.29a18.8,18.8,0,0,0,0,2.49c.68,4.76-.07,7.81-6,8.66-5.09.73-8.26,5-8.8,10.23-.29,2.76-1.42,3.14-3.73,3-8.8-.44-17.58-.87-25.71-4.87-4.61-2.28-7.49-5.6-8.29-11-1-6.61-1.64-13.17-.58-19.81.56-3.52,2-5.84,6.18-5.38,3,.32,6,0,9,.09,3.19.1,7-1.16,7.26,4.42.08,2,2.51,2.89,4.71,2.84s4.29-1,4.61-3.1c.52-3.39,2.41-3.26,4.88-2.85s4.94.64,7.39,1.06c9,1.57,9,1.58,9.12,10.66C279.29,347,279.28,348.12,279.28,349.29Z" transform="translate(-120.92 -205.22)"/><path class="cls-12" d="M304.91,332.14c12.74-17.49,37.34-22,54.7-1.68.72.84,2,1.84,1.17,3s-2.5.41-3.72.18c-13.91-2.69-27.89-4.23-42.07-2.93C311.88,331,308.8,331.57,304.91,332.14Z" transform="translate(-120.92 -205.22)"/><path class="cls-13" d="M258.78,379.58c-6.92,4.14-10.71,9.58-15,15.42-1.35-5.48-.83-10.33-.31-15.17a1.82,1.82,0,0,1,2.35-1.83C249.66,378.54,253.55,379,258.78,379.58Z" transform="translate(-120.92 -205.22)"/><path class="cls-13" d="M367,376.65c-.32-.59-.65-1.18-1-1.77,2.87,1.23,2.9-.83,3.2-2.7,1.27-7.84,2.59-15.68,4.13-25a11.79,11.79,0,0,1,.94,7.14c-1,6.39-2.24,12.73-3.17,19.12C370.73,376.1,369.16,376.61,367,376.65Z" transform="translate(-120.92 -205.22)"/><path class="cls-5" d="M376.63,369.42V353.6" transform="translate(-120.92 -205.22)"/><path class="cls-5" d="M285.07,358.37c0-3.12,0-6.24,0-9.36,0-1.19,0-2.34,1.61-2.48,2-.17,1.5,1.27,1.52,2.31C288.24,352.26,287.66,355.52,285.07,358.37Z" transform="translate(-120.92 -205.22)"/><path class="cls-13" d="M368.47,356.53c.57-4.25-.08-8.5-.34-13.08,2.73.66,3.22,2.2,2.89,4.35-.46,2.93-.84,5.86-1.26,8.79Z" transform="translate(-120.92 -205.22)"/><path class="cls-15" d="M368.47,356.53l1.29.06c-.3,1.54-.59,3.08-1,5.35A6.67,6.67,0,0,1,368.47,356.53Z" transform="translate(-120.92 -205.22)"/><path class="cls-1" d="M374,367.81c.6,1.21.8,2.15-.49,4C373,370,372.78,369.09,374,367.81Z" transform="translate(-120.92 -205.22)"/><path class="cls-1" d="M348.25,427.23c.15.49.31,1,.46,1.46C348.56,428.2,348.4,427.72,348.25,427.23Z" transform="translate(-120.92 -205.22)"/><path class="cls-1" d="M384.83,285.28c-.15-.47-.29-.94-.44-1.41C384.54,284.34,384.68,284.81,384.83,285.28Z" transform="translate(-120.92 -205.22)"/><path class="cls-1" d="M233.69,301.77v.1l-1.38,1Z" transform="translate(-120.92 -205.22)"/><path class="cls-1" d="M376.88,390.51c-7.32.31-.26,7.85-5.18,9.23-1.09-.42-.67-1.31-.63-2.06.1-2.08,1.09-4.89-1.61-5.56-2.24-.55-3.61,1.86-4.84,3.67-.6.89-.17,2.46-2.45,2.86-.66-3.11.85-5.29,3-7C368.52,388.94,372.26,387.52,376.88,390.51Z" transform="translate(-120.92 -205.22)"/><path class="cls-7" d="M229.69,567.29c5.56,1,10.43,2,15.32,2.8,2.6.44,3.05,1.6,2.33,4.13-1.72,6-3.06,12.2-4.59,18.3-.47,1.92-1.12,3.23-3.75,2.63-5.16-1.16-10.41-1.9-15.64-2.78-2.26-.38-3.54-.84-2.48-3.81,2.11-5.92,3.67-12,5.44-18.06C226.91,568.46,227.55,566.53,229.69,567.29Zm10.42,26.65c1.67-6.49,2.82-11.94,4.51-17.22,1.19-3.72.28-5.3-3.59-5.17-1.14,0-2.28.12-4.07.22,3.52,3.29,4.11,7.32,2,10.61C236.46,586.3,237.62,589.29,240.11,593.94ZM238,578.29c-.51-1.9-.48-4.67-3.38-4.52-3.85.18-4.36,3.46-4.63,6.49-.22,2.52.5,5.23,3.38,5C237,585,237.25,581.38,238,578.29Zm-2.87-7.62c-3.14.26-5.44-3.31-6.79.64-2,5.88-3.6,11.9-5.6,18.66,3.66-2.76,6-4.65,5.14-9.21C227.08,576.55,229.38,572.77,235.08,570.67Zm-9,20c3.14.53,5.57,1,8,1.34.73.11,1.78.78,2-.49a3.34,3.34,0,0,0-.61-2.27C233.62,586.65,229.6,587.06,226.11,590.66Z" transform="translate(-120.92 -205.22)"/><path class="cls-1" d="M263.09,583.69c-3.88-1.61-8.4-.59-12.47-2.76,5-1.9,11.4-.34,12.39,2.83Z" transform="translate(-120.92 -205.22)"/><path class="cls-14" d="M240.11,593.94c-2.49-4.65-3.65-7.64-1.14-11.56,2.1-3.29,1.51-7.32-2-10.61,1.79-.1,2.93-.18,4.07-.22,3.87-.13,4.78,1.45,3.59,5.17C242.93,582,241.78,587.45,240.11,593.94Z" transform="translate(-120.92 -205.22)"/><path class="cls-16" d="M238,578.29c-.7,3.09-.93,6.67-4.63,7-2.88.23-3.6-2.48-3.38-5,.27-3,.78-6.31,4.63-6.49C237.47,573.62,237.44,576.39,238,578.29Z" transform="translate(-120.92 -205.22)"/><path class="cls-14" d="M235.08,570.67c-5.7,2.1-8,5.88-7.25,10.09.82,4.56-1.48,6.45-5.14,9.21,2-6.76,3.59-12.78,5.6-18.66C229.64,567.36,231.94,570.93,235.08,570.67Z" transform="translate(-120.92 -205.22)"/><path class="cls-16" d="M226.11,590.66c3.49-3.6,7.51-4,9.39-1.42a3.34,3.34,0,0,1,.61,2.27c-.22,1.27-1.27.6-2,.49C231.68,591.61,229.25,591.19,226.11,590.66Z" transform="translate(-120.92 -205.22)"/></svg>