<svg id="Capa_1" data-name="Capa 1" xmlns="http://www.w3.org/2000/svg" viewBox="0 0 446.14 689.9"><defs><style>.cls-1{fill:#fefefe;}.cls-2{fill:#2c2a27;}.cls-3{fill:#d5a916;}.cls-4{fill:#fed422;}.cls-5{fill:#cfcfce;}.cls-6{fill:#ddb21a;}.cls-7{fill:#949292;}.cls-8{fill:#948c84;}.cls-9{fill:#d3af7f;}.cls-10{fill:#fdfcfc;}.cls-11{fill:#fae999;}.cls-12{fill:#dadada;}.cls-13{fill:#cae0e4;}.cls-14{fill:#b6966b;}.cls-15{fill:#d9b98c;}</style></defs><path class="cls-1" d="M385.51,765.84H121.63c-1.56-2.47-.79-5.19-.64-7.76a213,213,0,0,1,32.07-101.53,16.11,16.11,0,0,1,7.59-6.68,101.53,101.53,0,0,0,46.22-40.32c15.54-25.23,27.89-52,39.81-79.06,2.31-5.23,3.08-5.5,7.1-2,6.72,5.92,14.62,6.87,21.56,2.59,7.92-4.87,11-12.43,8.68-21.36-.57-2.18-1.19-4.35-1.68-6.15,5.33-2.38,7.55.47,9.58,4.7s5.1,8.17,7.41,12.39c1.88,3.44,3.16,3.47,5.35.18A321.85,321.85,0,0,0,326.73,483c4-8.3,7.06-17.1,12.5-25.21l1.3,5.38c4.18,17,5.19,34.51,7.88,51.75.5,3.23,1.14,5.9,5.14,5.85.1,8,.08,8.34,7.66,8.83,5.59.37,11.28.8,16.88-.43,3.44-.76,6-.09,8.67,2.93,2.9,3.27,4.68,7.65,8.83,9.79-.46,1-.88,2.11-1.4,3.13-13.66,27-19.94,55.44-17.42,85.7a1.9,1.9,0,0,0,.45,2.31c.74,2.08,2.67,1.71,4.26,2,3.42,1.53,6.94,1,10.45.49h3.14c3.48,0,4.46,1.63,4.57,5.2a297.41,297.41,0,0,1-.18,32.16c-.78,10.36-1.53,20.74-2.81,31-1.44,11.61-3.44,23.15-5.2,34.72-1.66,1.13-2.95,3.31-5.5,1.77-2.2-1.33-3,1.14-3.74,2-1.31,1.57,1.16,1.24,1.74,2a7.1,7.1,0,0,1,1.54,4c.15,2,1,2.65,2.88,1.73C388.23,755.61,386.77,760.71,385.51,765.84ZM365.1,747.19a9.05,9.05,0,0,1,.77,1.16c.58,1.37-.39,4.13,2,3.82,2.05-.27,1.16-2.67,1-4.25,0-.33-.14-.65-.18-1-.33-2.48-.5-5.93-2.74-6.53-3-.79-1.88,3.66-3.88,4.88-1.87-1.2-1.36-3.58-2.52-5.13-.48-.65-1-1.54-1.92-1.07a2.21,2.21,0,0,0-1,1.53c-.47,4.32-.71,8.65,1,13.24C357.3,747.79,363.71,750.86,365.1,747.19Zm17.48,2.93c.43-4.39-2.7-7.24-4.81-10.4-1.35-2-3.39-1.81-4.5.83a14.74,14.74,0,0,0-.86,10c.53,1.92.88,3.62,2.77.84,1.34-2,2.86-2.25,4.06,0,.53,1,.51,2.53,2.08,2.1S382.55,751.4,382.58,750.12Z" transform="translate(-77.55 -75.94)"/><path class="cls-1" d="M185.6,76a25.25,25.25,0,0,1,2.64,12.56c-.16,3.66,1.18,5.74,3.66,8,41.91,38.29,25,98.8-6.19,119.73a44.86,44.86,0,0,1-8.68,4.84c-3.44,1.32-3.65,3.09-3,6.45,3.48,17.64.17,34-11.85,47.58a54.57,54.57,0,0,1-39.9,18.94c-1.78.07-3,.19-3.91,2.16-7.55,17.27-20.93,27-39.36,30.09a6.26,6.26,0,0,0-1.37.58q0-123.47-.1-246.93c0-3.42.67-4.11,4.1-4.09C116.3,76.11,151,76,185.6,76Z" transform="translate(-77.55 -75.94)"/><path class="cls-2" d="M395.07,635.6h-3.14c-3.45-.83-7-.54-10.45-.49-1.59-.34-3.52,0-4.26-2a1.83,1.83,0,0,0-.45-2.31c-2.52-30.26,3.76-58.73,17.42-85.7.52-1,.94-2.09,1.4-3.13,5.17-7,10.16-14.14,17.79-20.31-3.52,0-5.79-.09-8,0-17.28.83-34.51-1.36-51.79-.82-4,.05-4.64-2.62-5.14-5.85-2.69-17.24-3.7-34.74-7.88-51.75l-1.3-5.38c-5.44,8.11-8.48,16.91-12.5,25.21a321.85,321.85,0,0,1-22.05,37.85c-2.19,3.29-3.47,3.26-5.35-.18-2.31-4.22-5.34-8.07-7.41-12.39s-4.25-7.08-9.58-4.7c.49,1.8,1.11,4,1.68,6.15,2.32,8.93-.76,16.49-8.68,21.36-6.94,4.28-14.84,3.33-21.56-2.59-4-3.55-4.79-3.28-7.1,2-11.92,27-24.27,53.83-39.81,79.06a101.53,101.53,0,0,1-46.22,40.32,16.11,16.11,0,0,0-7.59,6.68A213,213,0,0,0,121,758.08c-.15,2.57-.92,5.29.64,7.76h-3c.82-17.41,2.63-34.69,7.22-51.56A220.43,220.43,0,0,1,150,657.83c.91-1.51,2.27-2.87,2.35-5.17-7.49.75-14.87,1.58-22.27-.43-16.92-4.59-29.79-19.72-32.43-38.34-4.33-30.54,3.59-58.49,17.8-85.14,1-1.9,2-3.81,3.11-5.66,2.18-3.68,5.11-7.38-1.49-9.79a2,2,0,0,1-1.15-2.91c3-5.56,5.44-11.56,11-15.31-1.66,5-6,8.36-8.16,13.13-.88,2-1.57,3.38,1.12,4.74,7,3.52,13.79,7.28,20.57,11.13,2.19,1.25,3.51.77,5.17-.87,15.18-14.93,30.55-29.67,45-45.3,3.77-4.06,7.82-7.91,10.91-12.84-27.41-3.75-51.43,5.48-70.93,26.86-1.07,1.17-1.51,3.33-3.76,3.2-.37-1.56.84-2.44,1.66-3.35,16.63-18.54,36.62-30.63,62.29-28.75,10.58.77,16.73-2.74,21.33-11.59,2.74-5.28,6.41-10.08,9.62-15.12,1.89-3,3.5-6,3.69-9.64.44-8.19,4.81-13.84,12.12-16.69,5.35-2.08,2.42-6.16,3.11-9.24s-2.42-2.38-4.19-2.78c-7.6-1.72-15.13-3.65-22.19-7.05a36.2,36.2,0,0,1-10.85-7.85c-7.23-7.68-7.31-14.06,0-21.64a26,26,0,0,0,5.86-10.81c4.64-14.95,13-27.56,24.15-38.33,1.81-1.75,2.54-2.59.19-4.48-1.62-1.3-3.45-3.25-3.74-5.13-1.15-7.36-6.19-11.79-10.82-16.9-6.18-6.83-6.77-15.6-6.06-24.44.31-4,2.54-3.55,5.17-2.32,1,.48,1.44,1.85,2.82,1.87,2.69.05,5.5,1.68,4.85-3.9-1.71-14.74,3.15-27.45,14.28-37.52,1.05-.95,1.69-1.54,1.11-3.27-3.34-10.08,1.52-19,11.75-20.8,3.46-.62,4.53-2.22,5.59-5.05a385.08,385.08,0,0,1,18.92-42.71c13.41-25.86,35.06-39.5,63.32-43.4,11.17-1.54,31.13-1.3,43.07,3.15,2.26.84,4.45.17,6.63.62.4.65.19,1.56,1.2,2,6.08,2.51,12.11,5.11,18.48,7.82a24.9,24.9,0,0,0-2.35-7.72c-1.74-4-4-5.88-8.86-4.31-2.73.88-5.41,2.59-8.51,2.27,2.67-4.25,7.7-3.25,11.91-5.34-6.78-7.79-15.17-11-25.18-11.78s-18.8,2-27.1,7.42c10.55-12.56,38.56-13.34,52.48,1.49a10.32,10.32,0,0,0,7.26,3.47c6.34.54,12.25,2.83,17.89,5.75,12.2,6.33,17.57,16.75,17.54,30.09a12,12,0,0,0,2.82,8c13.24,17.08,18.79,35.94,14.83,57.75-4.53,25-15.42,47.46-25.86,70.18-3.24,7.06-6.41,14.15-10.15,22.42,5.75-2.67,9.9-5.7,14.16-8.54.81-.55,1.61-1.38,2.69-1s.88,1.41.62,2.13c-3.61,10-7.28,20.05-11.67,29.82,1.55-9.65,6-18.41,8.72-27.81-12.12,4.35-19.83,13.18-21.9,24.79-.3,1.72.27,2.58,1.66,3.64,9.07,6.9,8.78,17.19,9.49,27.07.09,1.2-.51,2.92-1.51,2.87-5.45-.24-7.26,5-11.19,7-1.48.74-3.08,2-4.55,1.86-5.66-.39-6.28,3.43-6.79,7.46-3.43,27.09-5.86,54.23-4.06,81.57,0,.34,0,.67.05,1,.87,7.45.87,7.45,8.45,7.7,14.46.47,14.57.45,17.86,14.64,2.73,11.77,5.22,23.6,7.69,35.43.7,3.33,1.84,5,5.83,4.69,26.28-1.9,43.7,10.67,55.23,33.58,11.89,23.62,17.49,49.24,24.65,74.37,2.21,7.75,2.49,7.4-5.43,10.09-3,1-3.38,2.18-2.62,5.32a257.48,257.48,0,0,1,5.38,89.09c-1.51,13.85-2.6,27.76-5.23,41.47h-2c.56-3.44,1.21-6.86,1.67-10.32,4.07-30.71,7.32-61.46,3.24-92.47-1.77-13.5-3.66-27-8.82-39.72-.2-2.36-2.26-2.06-3.71-2.51-12.46-3.79-25.28-5.31-38.23-5.88-19.6-.86-38.55,3.07-57.43,7.81-4.92,1.23-6.42,2.88-3.85,7.36,1,6.4,2.26,12.77,3.09,19.19,5.06,38.8,4.35,77.66,1.09,116.54h-2c.18-3.15.31-6.31.55-9.45C411,718.17,410.93,680,405.23,642c-1.14-7.62-1.14-7.63-8.76-6.88A6.56,6.56,0,0,0,395.07,635.6Zm21.7-280.35.07.07c.63,0,1.05-.28,1-1l.35.14c4.49-2.54,6.6-6.87,7.89-11.48,4.17-14.88-6-26.13-20.54-22.91-2.43-.15-4.3,2.32-7.08,1.67,1.3-3.2,4.74-2.71,7.18-4.8l-21.07-13.06c-4-2.63-8.1-5.13-12-7.93-2.42-1.75-3.79-1.53-6.09.61-9.09,8.48-19.32,14.66-32.49,13.39a12.42,12.42,0,0,0-4.83.91C308.5,317,285.29,306.4,280.24,284c-.32-1.83.35-4.4-2.31-4.83-10.14-1.62-20-5-30.29-5.52C238.5,273.19,232,278.85,230,289c-1.88,9.42,2.51,18,10.71,21,10.81,3.58,22.14,4.13,33.28,5.85,14.11,2.19,28.57,3.78,41.65,9.63,26.7,11.92,40.5,33.25,42.88,62.32,1.69,20.68-8.39,46.34-28.75,51.91-1.78.49-2.2,1.55-2.24,3.29-.12,5.18-3.39,8.14-7.78,10a29.28,29.28,0,0,1-11.23,2c-6.3,0-12.62-.36-18.88,1.18-3.34.82-4.51,1.67-2.2,5a62.17,62.17,0,0,1,8.51,18.49c2.14,7.62,3.37,15.19-4,21-1.69,1.32-.68,2.3-.06,3.34,3.28,5.58,6.62,11.13,10.17,17.07,5.61-8.57,10.86-16.82,15.73-25.34,6.6-11.57,11.34-24,17.52-35.8,2.25-4.29,5.2-6.64,10.32-5.9a68.05,68.05,0,0,0,8.46.21l31.45,1.66c4.3.31,8.62.5,12.91,1,2.91.33,3.21-.88,2.93-3.38-3.38-29.63-.68-59,3.68-88.33.67-4.46-.4-6.08-4.43-6.55-1.88-1.67-4.91-1.91-6.73-5.63,5.9,1.63,10.1,5.75,15.62,4.75a8.73,8.73,0,0,0,6.11-1.65l-.06.07C416.14,356.07,416.68,356,416.77,355.25ZM321.86,331.4l-1.13-.79a33.34,33.34,0,0,0-9.38-4.58c-20.36-5.75-41.19-9-62.21-11.12-2.36-.67-4.93-1-7-2.09-3.68-1.95-5.92-.6-8.54,2.08a93.54,93.54,0,0,0-23,38,23.76,23.76,0,0,1-5.69,9.76c-6.26,6.47-6.22,12.09-.14,18.71a25.81,25.81,0,0,0,7.74,6.18A80.21,80.21,0,0,0,249.27,397c7.48.1,15-.27,22.27,1.9,3.25,1,6,2.6,7.42,5.94-4.55-2.68-9.11-4.87-14.44-4.75l-4-.27a.37.37,0,0,0-.53-.17l-1.4-.23-5,.19-5-.18-1.05-.08c-2.9-.85-4.29.36-4.77,3.24-.77,4.61,1.29,7.64,5.08,9.86,4,2.35,8.43,4.14,11,8.25,2.22,3.49,5.17,4.31,8.92,3l1.56-.26,2.25-.28c1.65,0,3.31-.07,5-.08,15.53,0,30.79,1.27,44.76,9,1,.89,2.3,1.6,2.89,2.7,2.06,3.81,4.58,2.94,7.78,1.53a36,36,0,0,0,18-17.14c8.41-16.41,7.82-33.41,2.52-50.32-4.45-14.24-12.41-26.32-25.73-34.11h-.06a9,9,0,0,0-4.62-3.2ZM292.37,274c.1-.75-.38-.77-.91-.72-6.86-1.2-7.07-.95-4.86,5.8a1.72,1.72,0,0,0,0,.78c1.2,14,13.45,24.65,28.91,25l5.1-.05c12.77-.88,20.9-8.29,26.68-19,1.48-2.76,1.93-4.65-2.5-5-5.95-.42-11.82-1.77-17.75-2.49-11.18-1.36-22.21-3.89-33.5-4.37l-1,.14ZM249.8,427.25h.07a26.3,26.3,0,0,0,9.23-2.57,23.12,23.12,0,0,0-11.61-9.53L244,412.73c-1-1.66-2.34-2.05-4.24-1.56-5.68,1.48-11.79,8-12.13,13.92a24.85,24.85,0,0,1-3.76,11.7c-8.63,14.25-18,27.93-29.4,40.18-23.46,25.25-48.74,48.67-73.24,72.88-.54.54-1.14,1.34-2.17.38-.24-2,1.63-2.62,2.67-3.68q8.57-8.73,17.36-17.24c1.77-1.71,2.16-2.79-.51-3.73-.94-.33-1.79-.88-2.71-1.27-4.21-1.79-8.76-7-12-5.48-3.54,1.68-5,7.77-7.31,12C105.19,552.12,98.25,574.66,98.35,599c.05,12.2,1.53,24.24,9.25,34.49,1.22,2.79,3.49,4.67,5.68,6.63a9.73,9.73,0,0,0,1.19,1.56c13.61,11.87,29.19,12.38,44.9,6.19,18.41-7.26,33-19.81,43.72-36.54C214.4,593.63,224,575,232.8,556c4.1-8.85,8.07-17.77,12.41-27.34-7.67,1.1-14.53,2.34-21.5,2-1.28-1.88.06-2.27,1.47-2.42,2.12-.22,4.25-.28,6.37-.4,8.63.49,16.3-2.81,24.79-7.37-3.13,5.23-3.12,5.33.7,7.9,5.57,3.75,11.32,4.59,17.26.84,6.49-4.09,9.39-10.23,7.92-17.41a32.49,32.49,0,0,0-4.62-12c-2-6.57-6.94-11.51-10-17.56,4.9,2.61,6.95,7.58,10.15,11.56,1.48,2.53,1.16,6.49,5.2,7a10.22,10.22,0,0,0,10-4.33,12,12,0,0,0,2.15-8.94,52,52,0,0,0-9.56-24.63l-.43-.94-.61-.92c-2-4.35-5.56-7.37-8.79-10.69-.53-.55-1.49-1.24-.7-2.05s1.73.36,2.62.54c3.36,5.19,7.45,7.81,13.8,4.66,2.68-1.33,5.88-.63,8.86-.74,5.29-.2,10.62.19,15.85-1,6.55-1.51,9.5-5.28,8.55-10.91a9.87,9.87,0,0,0-7.57-8,2.07,2.07,0,0,0-2.56-1l.05,0c-1.58-1.87-3.91-2.19-6.05-2.82-9.14-2.69-18.57-3.6-28-3.81-13.26-.29-25.94,3.16-38.65,6.37.68-3.95,4.73-2.05,6.65-3.83ZM421.56,305c-2.42-.65-3.32,2.66-5.91,2.12-1.32-4.56-.78-9.41-1.33-14.13a74.32,74.32,0,0,0-1-16.66c-6.95,9.27-11.06,19.23-17.89,27.4,4.83-10.34,9.87-20.52,16.65-29.7.58-.78,1.33-1.6,2.48-1.3,1.44.38,1.46,1.8,1.54,2.85.36,5.12.56,10.26.82,15.39.2,4.18.4,8.36.62,12.69,5-1.95,7.08-5.44,8.8-9.61,8.81-21.36,20.25-41.57,27.63-63.54,5.32-15.81,10.27-31.75,7.5-48.78-2.15-13.27-7.34-25.15-16.63-35.3a7.36,7.36,0,0,0-.8,1.25c-.47,1.76-.89,3.52-1.33,5.29-1.61,2.91-1.71,6.61-4.44,9.17-1.65-2-.14-3.37.28-4.81,1.06-3.65,2.27-7.26,3.43-10.89.4-1.27.91-2.52-.32-3.67-8.45-7.88-17.45-15-28.25-20.68.44,6.26-.66,11.61-1.76,17-1.54,2.79-1.56,6.43-5.32,9.33,1.3-4.81,2.31-8.53,3.32-12.24A38.38,38.38,0,0,0,411.2,124c0-1.69-.31-3.29-2.16-4.13-5.41-2.46-10.56-5.56-16.44-6.9v0c-.17-.61-.6-.73-1.15-.61-2.88-1.09-5.72-2.33-8.65-3.25-11.88-3.7-24.11-3.58-36.37-3.24-3.81.11-7.48.46-10.85,2.37a14.32,14.32,0,0,0-6.4.36c-20.2,5.33-36,16.51-46.68,34.68-9.22,15.65-16.25,32.3-22.66,49.22-1.12,3-2.38,4.49-5.84,4.85a13.84,13.84,0,0,0-12.25,13.56c.07,3.58,1.31,6,5.55,6.07,4.48,0,8.95.43,13.43.67,9.44.82,18.89,1.6,28.33,2.46,3.84.35,7.46,1,10.31,4.21,2,2.18,2.94,6.45,5.63,6.38,2.46-.07,4.85-3.16,7.24-4.95.19-.14.16-.56.22-.85-.85-1.37-3.37-1.44-3.16-4.61a37.67,37.67,0,0,0,10.28,4.62c7.52,2,15.18,1.44,22.82,1.45,18.23,0,30.85,8.35,36,23.66,3.54,10.46,1.95,20.57-1.67,30.72-1.48,4.15-6.63,8.27-4.47,12s7.71,5.43,11.79,8a7.73,7.73,0,0,0,1.4.5,173.73,173.73,0,0,0,18.66,11.89l1.37.88,1.91,1.22c6.41,4.15,9.45,3.35,11.82-3.18.84-2.31,1.51-4.68,2.25-7ZM233,276.07l.48,0,.26-.4c6.8-4.59,14.23-4.87,21.94-3.24,2.3.49,5,1.48,5.39-2,.33-3.22-2.81-2-4.34-2.26-9-1.46-18-2.65-27-3.93l-2.25,0c-1.92-.43-3.84-.87-5.76-1.28-1.66-.35-2.38.28-2.4,2-.08,8.24,1.72,15.64,9.36,21.27C229,282.13,232,279.59,233,276.07Zm287.32,348,.63.51c0-.38.05-.77.07-1.15-4.22-17.79-9.5-35.29-15-52.71a133.72,133.72,0,0,0-16-34.21C479.45,520.75,464.64,513,445.5,514l-6.06.2a5.88,5.88,0,0,0-4,.66c-17.94,1.93-28.48,13.72-37.19,27.95A71.29,71.29,0,0,0,394,550c-9,19.65-14.76,40.12-15.64,61.83a32.63,32.63,0,0,0,0,15.19l.59,4.72c20-10.37,51.59-16.83,72.53-18.91,18.94-.63,37.6,1.14,55.88,6.37ZM425.51,514.63c2.57-.63,5.11-1.39,7.71-1.86,1.9-.34,2.51-1.1,2-3-3.81-15.63-6.45-31.53-10.67-47.07-.61-2.23-1.49-2.95-3.66-3-7.14-.07-14.28-.3-21.42-.47l-34.08-1.95c-6.81-.38-13.63-.63-20.42-1.17-3.51-.28-3.9,1.2-3.15,4.08a111.31,111.31,0,0,1,2.62,11.65c2.13,14.3,4.09,28.63,6.08,42.95.25,1.79-.05,3.81,2.72,3.84q18.69.24,37.38.53C402.46,519.05,414.6,521.56,425.51,514.63ZM366.17,236.11c-7.33-6-13.76-7.8-26.06-7.42-7.52.23-15,.18-22.26-2.11-1.81-.57-2.89.17-4.12.85-13.31,7.37-22.47,25.48-20.7,40.49.31,2.59,1.16,3.64,3.86,4,15.31,2.11,30.59,4.53,45.9,6.65,2.51.34,5.14,1.51,7.78-1.13a3.08,3.08,0,0,1,4.9,3.05c-.15,1.85.69,2.66,2.09,3.49a84.42,84.42,0,0,1,8.44,5.32c2.13,1.6,3.24,1.29,4.55-.94,4.73-8,7.77-16.62,7.72-25.95,0-7-1.38-13.83-6.27-19.67-.86,3.33-2.47,5.47-5.91,5.3a4.91,4.91,0,0,1-5-4.06C360.23,240.05,362.43,237.81,366.17,236.11Zm-72.61-13.22c-1.35.55-1,1.11-.83,1.51a4.84,4.84,0,0,1-2.25,6,4.54,4.54,0,0,1-5.18-.25c-2.37-1.62-2.37-4-1.36-6.22,1.75-3.84-1.63-2.51-2.76-2.61-7.79-.72-15.61-1.06-23.39-1.78-16.18-1.5-18.56-.28-26.11,14.25-3.8,7.33-4.46,15.18-4,23.28.19,3.59,1.66,5.22,5.29,5.6,6.61.68,13.53.76,19.67,2.94,5.78,2.07,12.46-4,17.26,2.56,0,.05.31-.07.47-.11,2.56-.52,4.94.2,7.3,1.07.66.24,1.08.78,1.93-.27,2.24-2.78,4.39-2.63,6.26.72.8,1.44,2.62,1.27,4.1,1.15s1.06-1.34,1-2.26c-1.18-12.24,2.89-22.86,10-32.55.74-1,2.31-2,1.46-3.41C300.06,228.6,297.84,224.5,293.56,222.89ZM407.64,105.51c2.43,4.29,3,9.54,5.55,13.19s7.78,5.35,11.75,8c2.47,1.66,4.83,3.49,7.16,5.35,3.57,2.84,7.08,5.76,10.88,8.87C445.13,118,425.58,106.34,407.64,105.51ZM354.73,284.6c-2.78,10.19-9.11,17.43-17.5,23.14,11.56,0,20.27-5.69,28.28-12.92,1.64-1.48,1.62-2.5-.4-3.68C361.7,289.15,358.42,287,354.73,284.6Zm27.5,348.2c7.08,0,12.85,0,18.62,0,2.21,0,3.31-.91,2.11-2.9-.92-1.53.69-5.48-3.46-4.23C393.9,627.37,388.31,629.13,382.23,632.8ZM265.86,274.59c3.51.77,6.71,1.57,9.95,2.14,1.15.2,2.94,1.17,3.45-.46a4,4,0,0,0-1.4-4.44C274.1,268.79,269,269.75,265.86,274.59ZM511.13,622.76c1.87,7.47,2,7.51,8.49,3.37Z" transform="translate(-77.55 -75.94)"/><path class="cls-3" d="M405.32,630.11c-2.57-4.48-1.07-6.13,3.85-7.36,18.88-4.74,37.83-8.67,57.43-7.81,12.95.57,25.77,2.09,38.23,5.88,1.45.45,3.51.15,3.71,2.51-.21.8-.22,2.1-.68,2.3-4.88,2-2.58,5.44-1.78,8.53a210.73,210.73,0,0,1,6.18,40.1,365.45,365.45,0,0,1,0,40.94c-.38,7.6-.66,15.48-3.88,22.71a10.73,10.73,0,0,0-9.83,10.21c-.27,4.84,2.39,6.83,6.93,6.89l-2,10.83h-47q.93-6.45,1.87-12.9a14.66,14.66,0,0,0,2.4-.54c1.29-.52,3.5-.77,2.95-2.56-.6-2-2.4-.56-3.71-.26-.77.18-1.59.41-2.33-1.11,1.86-1,7.14-1,2.38-5-.86-.73.3-1.34.95-1.78,1.32-.9,1.82-1.9.31-3.09,1-14.69,2.38-29.37,3-44.09.58-12.76-1-25.49-2-38.2-.79-10.21-3.15-20.23-5.59-30.2-.81-3.29-2.71-5.17-5.82-5-13.34,1-26.74,1.76-39.78,5.08C408.89,626.8,406,626.89,405.32,630.11Zm72.3,115.26a6.67,6.67,0,0,0-2.47-5.8c-.8-.62-1.92-1-2.72-.21-1.11,1.13.07,1.79.88,2.23,2.39,1.3,3,3.63,1.68,5.44-1.75,2.36-3.38-.32-5-1.12-1.28-.63-2.66-2.43-3.92-1.23-1.53,1.45-1.15,4-.36,5.66,1,2.21,2-.67,3.11-.57a9.86,9.86,0,0,1,2.91.3C476.17,751.91,477.56,749.82,477.62,745.37ZM492,746.86a29.45,29.45,0,0,0-3.78-1.85c-1.2-.39-2.55-.12-2.47,1.46.06,1.42.81,4,1.95,3.45,2.4-1.13,5.43,3.1,7-.92,1.2-3.11.53-6.21-1.09-9.08a1.58,1.58,0,0,0-2.1-.8c-1,.51-.67,1.32-.13,2C492.59,742.74,492.77,744.47,492,746.86Zm-11.17-3.41c.87,2.54-1.44,5.4.7,8.21C484.05,748.46,484,745.84,480.87,743.45Z" transform="translate(-77.55 -75.94)"/><path class="cls-4" d="M458.35,752.94q-.93,6.45-1.87,12.9h-47c3.26-38.88,4-77.74-1.09-116.54-.83-6.42-2.05-12.79-3.09-19.19.63-3.22,3.57-3.31,5.8-3.88,13-3.32,26.44-4.11,39.78-5.08,3.11-.22,5,1.66,5.82,5,2.44,10,4.8,20,5.59,30.2,1,12.71,2.61,25.44,2,38.2-.66,14.72-2,29.4-3,44.09-4.39.31-8.3,1.28-8.24,6.84A7.56,7.56,0,0,0,458.35,752.94Zm-16.86-4.08c-2.66.56-2.95-.22-2.27-2.83.93-3.57-1.74-6.81-4.35-6s-5,10.11-3.08,12.07c.6.6,1.23.6,1.68.08,1.1-1.25,2.28-1,3.57-.45,2.88,1.19,3.84-.59,4.41-2.92,2.16,1.53,3.87,4.42,7.19,2.71,2.85-1.47,3.12-4.1,2.61-6.88-.48-2.58-2-4.19-4.78-4.07-3.06.12-4.33,2.07-4.67,4.85C441.66,746.56,441.59,747.71,441.49,748.86Zm-20.38,5.06c5.13,0,8.6-4,7.16-7.78a2.66,2.66,0,0,0-3-2c-1.77.29-3.4,1.35-3.55,3-.18,1.91,1.44,1.09,2.52.91a1.66,1.66,0,0,1,1.13.51,3,3,0,0,1-.68,1.69,3.81,3.81,0,0,1-3.75.73c-1.35-.41-1.58-1.6-1.57-2.81,0-4.28,2-7.25,6-8.78,1.07-.41,2.42-.51,2-2.2a1.88,1.88,0,0,0-1.77-1.53c-5,0-6.63,3.89-8,7.62-1.3,3.56-2.73,7.45,1.57,10.23A4.24,4.24,0,0,0,421.11,753.92Z" transform="translate(-77.55 -75.94)"/><path class="cls-5" d="M395.07,635.6a6.56,6.56,0,0,1,1.4-.46c7.62-.75,7.62-.74,8.76,6.88,5.7,38,5.74,76.15,2.82,114.37-.24,3.14-.37,6.3-.55,9.45h-22c1.26-5.13,2.72-10.23,2.86-15.57l.06.08c1.59-1.11.34-3.73,2.44-4.57,3.22,1,1.25,5.13,3.73,6.8,2.1-2.41-.62-5.61,1.75-7.5,1.15-.93,3.72-.63,3-3-.56-1.85-2.74-1.44-4.23-2-1.23-.44-2.44-.9-3.66-1.35,1.76-11.57,3.76-23.11,5.2-34.72,1.28-10.31,2-20.69,2.81-31a297.41,297.41,0,0,0,.18-32.16C399.53,637.23,398.55,635.62,395.07,635.6Z" transform="translate(-77.55 -75.94)"/><path class="cls-6" d="M508.37,737.91c3.22-7.23,3.5-15.11,3.88-22.71a365.45,365.45,0,0,0,0-40.94,210.73,210.73,0,0,0-6.18-40.1c-.8-3.09-3.1-6.51,1.78-8.53.46-.2.47-1.5.68-2.3,5.16,12.75,7.05,26.22,8.82,39.72,4.08,31,.83,61.76-3.24,92.47-.46,3.46-1.11,6.88-1.67,10.32h-9l2-10.83a11.41,11.41,0,0,0,5.49-3.07c3.15-3.38,2.06-6.88-2.5-8.15,0-.41-.08-.82-.13-1.23C508.74,741,509.53,739.47,508.37,737.91Z" transform="translate(-77.55 -75.94)"/><path class="cls-5" d="M353.55,520.81c17.28-.54,34.51,1.65,51.79.82,2.25-.1,4.52,0,8,0-7.63,6.17-12.62,13.32-17.79,20.31-4.15-2.14-5.93-6.52-8.83-9.79-2.68-3-5.23-3.69-8.67-2.93-5.6,1.23-11.29.8-16.88.43C353.63,529.15,353.65,528.82,353.55,520.81Z" transform="translate(-77.55 -75.94)"/><path class="cls-7" d="M365.1,747.19c-1.39,3.67-7.8.6-7.56,6.67-1.67-4.59-1.43-8.92-1-13.24a2.21,2.21,0,0,1,1-1.53c.95-.47,1.44.42,1.92,1.07,1.16,1.55.65,3.93,2.52,5.13,2-1.22.89-5.67,3.88-4.88,2.24.6,2.41,4.05,2.74,6.53,0,.33.15.65.18,1,.13,1.58,1,4-1,4.25-2.35.31-1.38-2.45-2-3.82A9.05,9.05,0,0,0,365.1,747.19Z" transform="translate(-77.55 -75.94)"/><path class="cls-7" d="M391.45,738.73c1.22.45,2.43.91,3.66,1.35,1.49.53,3.67.12,4.23,2,.73,2.4-1.84,2.1-3,3-2.37,1.89.35,5.09-1.75,7.5-2.48-1.67-.51-5.79-3.73-6.8-1.78-1.47-3.23-2-3,1.24a29.41,29.41,0,0,0,.59,3.33l-.06-.08c-1.87.92-2.73.25-2.88-1.73a7.1,7.1,0,0,0-1.54-4c-.58-.74-3.05-.41-1.74-2,.73-.87,1.54-3.34,3.74-2C388.5,742,389.79,739.86,391.45,738.73Z" transform="translate(-77.55 -75.94)"/><path class="cls-7" d="M382.58,750.12c0,1.28.43,2.91-1.26,3.36s-1.55-1.1-2.08-2.1c-1.2-2.28-2.72-2-4.06,0-1.89,2.78-2.24,1.08-2.77-.84a14.74,14.74,0,0,1,.86-10c1.11-2.64,3.15-2.84,4.5-.83C379.88,742.88,383,745.73,382.58,750.12Z" transform="translate(-77.55 -75.94)"/><path class="cls-5" d="M381.48,635.12c3.49,0,7-.34,10.45.49C388.42,636.1,384.9,636.65,381.48,635.12Z" transform="translate(-77.55 -75.94)"/><path class="cls-8" d="M376.77,630.76a1.83,1.83,0,0,1,.45,2.31A1.9,1.9,0,0,1,376.77,630.76Z" transform="translate(-77.55 -75.94)"/><path class="cls-4" d="M277.63,448.87c-.89-.18-1.69-1.5-2.62-.54s.17,1.5.7,2.05c3.23,3.32,6.81,6.34,8.79,10.69l.61.92.43.94c.26,5.82,3.39,10.94,3.62,16.88.33,8.28-3.93,14.07-11.37,14-3.2-4-5.25-8.95-10.15-11.56,3,6.05,8,11,10,17.56,0,2.16.31,4.29.51,6.42.49,5.28-.39,10.41-5.17,13.69-4.15,2.84-6.72-1.18-9.66-2.89-3.44-2-6.55-2.56-10.24-.43-7,4-13.61,8.87-21.49,11.24-2.12.12-4.25.18-6.37.4-1.41.15-2.75.54-1.47,2.42-1.43,17.21-7.76,32.75-15.86,47.77-9.38,17.4-20.86,33.09-36.62,45.26-11.29,8.73-23.65,14.88-38.21,16.52-6.69.76-13.17-1.48-19.74-.14-2.19-2-4.46-3.84-5.68-6.63-1.48-6.62-3.35-13.15-4-20-1.74-18.78,6.94-33.94,17.35-48.11,12.63-17.21,28.61-31.32,44.34-45.68,19.12-17.45,38.25-35,53.37-56.27,4.72-6.65,9.57-13.3,16.52-17.82,15.19-9.89,32.39-13.32,50.08-14.6a160.72,160.72,0,0,1,29.33.87l-.05,0c.53,1.14,1.57,1,2.56,1a9.87,9.87,0,0,1,7.57,8c-5.44,4.44-11.28,5.53-18.44,4.5C296.62,444,286.81,444.77,277.63,448.87Z" transform="translate(-77.55 -75.94)"/><path class="cls-4" d="M385.46,301.18a7.73,7.73,0,0,1-1.4-.5c-4.08-2.58-9.62-4.31-11.79-8s3-7.81,4.47-12c3.62-10.15,5.21-20.26,1.67-30.72-5.16-15.31-17.78-23.65-36-23.66-7.64,0-15.3.52-22.82-1.45a37.67,37.67,0,0,1-10.28-4.62c-.21,3.17,2.31,3.24,3.17,4.61-.07.29,0,.71-.23.85-2.39,1.79-4.78,4.88-7.24,4.95-2.69.07-3.66-4.2-5.63-6.38-2.85-3.17-6.47-3.86-10.31-4.21-9.44-.86-18.89-1.64-28.33-2.46-2-8.15-.07-12.29,7.56-16,2.43-1.19,4.78-2.18,5.27-5.38,1.15-7.57,3.62-14.82,5.83-22.13,5-16.59,12.87-31.58,24.86-44.32a89.16,89.16,0,0,1,31.33-21.57c3.37-1.91,7-2.26,10.85-2.37,12.26-.34,24.49-.46,36.37,3.24,2.93.92,5.77,2.16,8.65,3.25l1.15.61v0c-.27,2.14,1.63,2.56,2.76,3.67,5.83,5.73,12.66,10.76,14.25,19.59-1,3.71-2,7.43-3.32,12.24,3.76-2.9,3.78-6.54,5.32-9.33,1.3,1,1.56,2.47,2,3.88,4.32,13.61,5.2,27.34,4.23,41.68a204,204,0,0,1-11.26,53.82C399.31,259.3,391.32,279.87,385.46,301.18Z" transform="translate(-77.55 -75.94)"/><path class="cls-9" d="M321.35,432.05c-14-7.72-29.23-9-44.76-9-1.65,0-3.31.06-5,.08-.95-1.5-1.64-1-2.25.28l-1.56.26c-1.75-4.46-3.68-8.89-7.27-12.15s-6.53-6.84-7-11.93l5-.19,1.4.23a.37.37,0,0,1,.53.17c1.24,1.56,2.58,1.53,4,.27,5.33-.12,9.89,2.07,14.44,4.75-1.46-3.34-4.17-5-7.42-5.94-7.29-2.17-14.79-1.8-22.27-1.9a80.09,80.09,0,0,1-36.77-9.42c-3.64-7.74-2.68-14.4,4.58-19.61,3.92-2.81,5.55-7,6.38-11.47,2.68-14.51,8.53-27.33,18.93-38a10.66,10.66,0,0,1,6.75-3.56c21,2.11,41.85,5.37,62.21,11.12a33.34,33.34,0,0,1,9.38,4.58c.08.7.39,1,1.13.79l.26.1c.11,3.13,2,3.63,4.62,3.2l.06,0c-.39,2,.84,3.44,2,4.88,12.36,15.94,21.38,32.82,17.91,54.19-1.84,11.33-4.79,22-12.41,30.74C330.93,428.35,327,431.8,321.35,432.05Z" transform="translate(-77.55 -75.94)"/><path class="cls-4" d="M280.24,284c5.05,22.39,28.26,33,48.94,26.86A12.42,12.42,0,0,1,334,310c13.17,1.27,23.4-4.91,32.49-13.39,2.3-2.14,3.67-2.36,6.09-.61,3.88,2.8,8,5.3,12,7.93-.56,2.75-1,5.55-1.69,8.25-6.72,24.74-13.27,49.47-16.75,75a463.91,463.91,0,0,0-4.64,58.83c-.06,7.5,0,7.5-7.4,8.27a68.05,68.05,0,0,1-8.46-.21c-5.12-.74-8.07,1.61-10.32,5.9-6.18,11.77-10.92,24.23-17.52,35.8-4.87,8.52-10.12,16.77-15.73,25.34-3.55-5.94-6.89-11.49-10.17-17.07-.62-1-1.63-2,.06-3.34,7.34-5.8,6.11-13.37,4-21a62.17,62.17,0,0,0-8.51-18.49c-2.31-3.36-1.14-4.21,2.2-5,6.26-1.54,12.58-1.15,18.88-1.18a29.28,29.28,0,0,0,11.23-2c4.39-1.83,7.66-4.79,7.78-10,0-1.74.46-2.8,2.24-3.29,20.36-5.57,30.44-31.23,28.75-51.91-2.38-29.07-16.18-50.4-42.88-62.32-13.08-5.85-27.54-7.44-41.65-9.63-11.14-1.72-22.47-2.27-33.28-5.85-5.39-14.32-.91-22.29,14.28-25.28C263.34,283.05,271.82,284.48,280.24,284Z" transform="translate(-77.55 -75.94)"/><path class="cls-5" d="M507.33,619.16c-18.28-5.23-36.94-7-55.88-6.37a6.77,6.77,0,0,0-.18-2c-7.7-19.12-15.82-38.09-28.95-54.22-6.06-7.43-12.92-14.65-24.05-13.82,8.71-14.23,19.25-26,37.19-27.95,2.25,5.29,2.66-.43,4-.66l6.06-.2c4.82,2,10.08,2.81,14.76,5.35A60.06,60.06,0,0,1,488,550.7c8.15,20.77,16.6,41.53,20.59,63.71C509,616.5,508.73,617.83,507.33,619.16Z" transform="translate(-77.55 -75.94)"/><path class="cls-3" d="M385.46,301.18c5.86-21.31,13.85-41.88,21.13-62.71a204,204,0,0,0,11.26-53.82c1-14.34.09-28.07-4.23-41.68-.45-1.41-.71-2.92-2-3.88,1.1-5.35,2.2-10.7,1.76-17,10.8,5.68,19.8,12.8,28.25,20.68,1.23,1.15.72,2.4.32,3.67-1.16,3.63-2.37,7.24-3.43,10.89-.42,1.44-1.93,2.83-.28,4.81,2.73-2.56,2.83-6.26,4.44-9.17.56.3,1.38.46,1.65.94,5.81,10.49,10.16,21.47,10.13,33.69,0,21.89-7.16,42-15.67,61.75-5.27,12.24-12.23,23.69-16.77,36.28-.82,2.3-1.76,5.18-5.13,5.34-.26-5.13-.46-10.27-.82-15.39-.08-1.05-.1-2.47-1.54-2.85-1.15-.3-1.9.52-2.48,1.3-6.78,9.18-11.82,19.36-16.65,29.7,6.83-8.17,10.94-18.13,17.89-27.4a74.32,74.32,0,0,1,1,16.66c-2,1.07-2.2,3-1.65,4.74,2.22,7.06.91,12.94-5.27,17.4L405.49,314c-.46-.29-.92-.58-1.37-.88A173.73,173.73,0,0,1,385.46,301.18Z" transform="translate(-77.55 -75.94)"/><path class="cls-3" d="M354.09,454.21c7.38-.77,7.34-.77,7.4-8.27a463.91,463.91,0,0,1,4.64-58.83c3.48-25.5,10-50.23,16.75-75,.73-2.7,1.13-5.5,1.69-8.25L405.64,317c-2.44,2.09-5.88,1.6-7.18,4.8,2.78.65,4.65-1.82,7.08-1.67,1.35,1.45,3.11.86,4.7.86a7.79,7.79,0,0,1,5.87,2.23c5.46,5.63,8.5,15.82,4.88,23.32-1.17,2.42-4.32,4.51-2.8,8l-.35-.15c-.77-.09-1.08.26-1,1l-.07-.07a1.07,1.07,0,0,0-1.2.89l.06-.07c-2.06.48-4.81-1.62-6.11,1.65-5.52,1-9.72-3.12-15.62-4.75,1.82,3.72,4.85,4,6.73,5.63-1.77,8.58-3.31,17.16-4.36,25.89-2.51,20.71-5.6,41.35-4.69,62.29.21,4.81,0,8.74-6,9.09ZM418.5,332.55c-2.86-4.07-6.69-3.24-10.31-1.6-4.36,2-6.67,5.59-7.6,10.83,2.44-.53,2.42-1.88,3-2.79,1-1.64,1.6-4.46,3.68-4.12,2.45.4,3.18,3.17,3.35,5.55s0,5,0,7.56c4.35-5.34,2.19-10.39-.79-15.24C413,331.16,415.65,332.3,418.5,332.55Z" transform="translate(-77.55 -75.94)"/><path class="cls-1" d="M398.27,542.77c11.13-.83,18,6.39,24.05,13.82,13.13,16.13,21.25,35.1,28.95,54.22a6.77,6.77,0,0,1,.18,2c-20.94,2.08-52.56,8.54-72.53,18.91-.21-1.66-.4-3.19-.59-4.72q0-7.61,0-15.19C379.19,590.08,385,569.61,394,550A71.29,71.29,0,0,1,398.27,542.77Z" transform="translate(-77.55 -75.94)"/><path class="cls-10" d="M366.17,236.11c-3.74,1.7-5.94,3.94-5.1,7.89a4.91,4.91,0,0,0,5,4.06c3.44.17,5.05-2,5.91-5.3,4.89,5.84,6.23,12.69,6.27,19.67.05,9.33-3,17.92-7.72,25.95-1.31,2.23-2.42,2.54-4.55.94a84.42,84.42,0,0,0-8.44-5.32c-1.4-.83-2.24-1.64-2.09-3.49a3.08,3.08,0,0,0-4.9-3.05c-2.64,2.64-5.27,1.47-7.78,1.13-15.31-2.12-30.59-4.54-45.9-6.65-2.7-.38-3.55-1.43-3.86-4-1.77-15,7.39-33.12,20.7-40.49,1.23-.68,2.31-1.42,4.12-.85,7.24,2.29,14.74,2.34,22.26,2.11C352.41,228.31,358.84,230.14,366.17,236.11Z" transform="translate(-77.55 -75.94)"/><path class="cls-11" d="M314.61,431.87a160.72,160.72,0,0,0-29.33-.87c-17.69,1.28-34.89,4.71-50.08,14.6-6.95,4.52-11.8,11.17-16.52,17.82-15.12,21.29-34.25,38.82-53.37,56.27-15.73,14.36-31.71,28.47-44.34,45.68-10.41,14.17-19.09,29.33-17.35,48.11.63,6.82,2.5,13.35,4,20-7.72-10.25-9.2-22.29-9.25-34.49-.1-24.3,6.84-46.84,18.23-68.12,2.27-4.24,3.77-10.33,7.31-12,3.26-1.53,7.81,3.69,12,5.48.92.39,1.77.94,2.71,1.27,2.67.94,2.28,2,.51,3.73q-8.81,8.49-17.36,17.24c-1,1.06-2.91,1.72-2.67,3.68,1,1,1.63.16,2.17-.38,24.5-24.21,49.78-47.63,73.24-72.88,11.38-12.25,20.77-25.93,29.4-40.18a24.85,24.85,0,0,0,3.76-11.7c.34-5.91,6.45-12.44,12.13-13.92,1.9-.49,3.25-.1,4.24,1.56-3.92,4.34-7.51,8.74-6.58,15.26.41,2.88,1.39,4.31,4.42,3.62,12.71-3.21,25.39-6.66,38.65-6.37,9.46.21,18.89,1.12,28,3.81C310.7,429.68,313,430,314.61,431.87Z" transform="translate(-77.55 -75.94)"/><path class="cls-10" d="M293.56,222.89c4.28,1.61,6.5,5.71,8.82,9.63.85,1.44-.72,2.4-1.46,3.41-7.12,9.69-11.19,20.31-10,32.55.09.92.59,2.13-1,2.26s-3.3.29-4.1-1.15c-1.87-3.35-4-3.5-6.26-.72-.85,1.05-1.27.51-1.93.27-2.36-.87-4.74-1.59-7.3-1.07-.16,0-.43.16-.47.11-4.8-6.56-11.48-.49-17.26-2.56-6.14-2.18-13.06-2.26-19.67-2.94-3.63-.38-5.1-2-5.29-5.6-.44-8.1.22-15.95,4-23.28,7.55-14.53,9.93-15.75,26.11-14.25,7.78.72,15.6,1.06,23.39,1.78,1.13.1,4.51-1.23,2.76,2.61-1,2.23-1,4.6,1.36,6.22a4.54,4.54,0,0,0,5.18.25,4.84,4.84,0,0,0,2.25-6C292.6,224,292.21,223.44,293.56,222.89Z" transform="translate(-77.55 -75.94)"/><path class="cls-5" d="M365.44,457.29l34.08,1.95c.48,2.11,2.19,1.66,3.62,1.68,3.16,0,6.32.13,9.48,0,2.65-.12,3.55.73,4,3.58,1.4,9,3.41,17.82,5.06,26.74,1.45,7.77,3.94,15.38,3.83,23.41-10.91,6.93-23.05,4.42-34.84,4.54-4.53-12.95-9.74-25.63-14.88-38.35C372.57,472.85,367.83,465.59,365.44,457.29Z" transform="translate(-77.55 -75.94)"/><path class="cls-3" d="M113.28,640.08c6.57-1.34,13,.9,19.74.14,14.56-1.64,26.92-7.79,38.21-16.52,15.76-12.17,27.24-27.86,36.62-45.26,8.1-15,14.43-30.56,15.86-47.77,7,.31,13.83-.93,21.5-2-4.34,9.57-8.31,18.49-12.41,27.34-8.8,19-18.4,37.65-29.71,55.31-10.7,16.73-25.31,29.28-43.72,36.54-15.71,6.19-31.29,5.68-44.9-6.19A9.73,9.73,0,0,1,113.28,640.08Z" transform="translate(-77.55 -75.94)"/><path class="cls-10" d="M126.83,495.13c2.25.13,2.69-2,3.76-3.2,19.5-21.38,43.52-30.61,70.93-26.86-3.09,4.93-7.14,8.78-10.91,12.84-14.48,15.63-29.85,30.37-45,45.3-1.66,1.64-3,2.12-5.17.87-6.78-3.85-13.61-7.61-20.57-11.13-2.69-1.36-2-2.73-1.12-4.74,2.11-4.77,6.5-8.1,8.16-13.13Z" transform="translate(-77.55 -75.94)"/><path class="cls-10" d="M365.44,457.29c2.39,8.3,7.13,15.56,10.35,23.53,5.14,12.72,10.35,25.4,14.88,38.35q-18.69-.27-37.38-.53c-2.77,0-2.47-2-2.72-3.84-2-14.32-3.95-28.65-6.08-42.95a111.31,111.31,0,0,0-2.62-11.65c-.75-2.88-.36-4.36,3.15-4.08C351.81,456.66,358.63,456.91,365.44,457.29Z" transform="translate(-77.55 -75.94)"/><path class="cls-11" d="M335.58,108.21a89.16,89.16,0,0,0-31.33,21.57c-12,12.74-19.84,27.73-24.86,44.32-2.21,7.31-4.68,14.56-5.83,22.13-.49,3.2-2.84,4.19-5.27,5.38-7.63,3.72-9.54,7.86-7.56,16-4.48-.24-9-.65-13.43-.67-4.24,0-5.48-2.49-5.55-6.07A13.84,13.84,0,0,1,254,197.32c3.46-.36,4.72-1.88,5.84-4.85,6.41-16.92,13.44-33.57,22.66-49.22,10.7-18.17,26.48-29.35,46.68-34.68A14.32,14.32,0,0,1,335.58,108.21Z" transform="translate(-77.55 -75.94)"/><path class="cls-6" d="M416.88,291c3.37-.16,4.31-3,5.13-5.34,4.54-12.59,11.5-24,16.77-36.28,8.51-19.75,15.63-39.86,15.67-61.75,0-12.22-4.32-23.2-10.13-33.69-.27-.48-1.09-.64-1.65-.94.44-1.77.86-3.53,1.33-5.29a7.36,7.36,0,0,1,.8-1.25c9.29,10.15,14.48,22,16.63,35.3,2.77,17-2.18,33-7.5,48.78-7.38,22-18.82,42.18-27.63,63.54-1.72,4.17-3.8,7.66-8.8,9.61C417.28,299.37,417.08,295.19,416.88,291Z" transform="translate(-77.55 -75.94)"/><path class="cls-12" d="M507.33,619.16c1.4-1.33,1.66-2.66,1.28-4.75-4-22.18-12.44-42.94-20.59-63.71a60.06,60.06,0,0,0-27.76-31.39c-4.68-2.54-9.94-3.32-14.76-5.35,19.14-1,33.95,6.79,44.48,22.53a133.72,133.72,0,0,1,16,34.21c5.51,17.42,10.79,34.92,15,52.71a7.08,7.08,0,0,0-.7.64Z" transform="translate(-77.55 -75.94)"/><path class="cls-13" d="M293.49,274c11.3.48,22.33,3,33.51,4.37,5.93.72,11.8,2.07,17.75,2.49,4.43.31,4,2.2,2.5,5-5.78,10.69-13.91,18.1-26.68,19-12.24-5.51-21.1-14.27-25.93-26.93C294.26,276.59,293.88,275.3,293.49,274Z" transform="translate(-77.55 -75.94)"/><path class="cls-14" d="M321.35,432.05c5.61-.25,9.58-3.7,12.91-7.52,7.62-8.75,10.57-19.41,12.41-30.74,3.47-21.37-5.55-38.25-17.91-54.19-1.12-1.44-2.35-2.84-2-4.88,13.32,7.78,21.28,19.86,25.73,34.1,5.3,16.91,5.89,33.91-2.52,50.32a36,36,0,0,1-18,17.14c-3.2,1.41-5.72,2.28-7.78-1.53C323.65,433.65,322.34,432.94,321.35,432.05Z" transform="translate(-77.55 -75.94)"/><path class="cls-15" d="M249.14,314.91a10.66,10.66,0,0,0-6.75,3.56c-10.4,10.69-16.25,23.51-18.93,38-.83,4.45-2.46,8.66-6.38,11.47-7.26,5.21-8.22,11.87-4.58,19.61a25.62,25.62,0,0,1-7.74-6.17c-6.08-6.62-6.12-12.24.14-18.71a23.76,23.76,0,0,0,5.69-9.76,93.54,93.54,0,0,1,23-38c2.62-2.68,4.86-4,8.54-2.08C244.21,313.94,246.78,314.24,249.14,314.91Z" transform="translate(-77.55 -75.94)"/><path class="cls-6" d="M385.54,455.87c6.07-.35,6.25-4.28,6-9.09-.91-20.94,2.18-41.58,4.69-62.29,1.05-8.73,2.59-17.31,4.36-25.89,4,.47,5.1,2.09,4.43,6.55-4.36,29.29-7.06,58.7-3.68,88.33.28,2.5,0,3.71-2.93,3.38C394.16,456.37,389.84,456.18,385.54,455.87Z" transform="translate(-77.55 -75.94)"/><path class="cls-11" d="M280.24,284c-8.42.47-16.9-1-25.28.69-15.19,3-19.67,11-14.28,25.28-8.2-3-12.59-11.57-10.71-21,2-10.14,8.53-15.8,17.67-15.33,10.33.54,20.15,3.9,30.29,5.52C280.59,279.61,279.92,282.18,280.24,284Z" transform="translate(-77.55 -75.94)"/><path class="cls-12" d="M425.51,514.63c.11-8-2.38-15.64-3.83-23.41-1.65-8.92-3.66-17.78-5.06-26.74-.45-2.85-1.35-3.7-4-3.58-3.16.15-6.32.06-9.48,0-1.43,0-3.14.43-3.62-1.68,7.14.17,14.28.4,21.42.47,2.17,0,3.05.75,3.66,3,4.22,15.54,6.86,31.44,10.67,47.07.46,1.91-.15,2.67-2,3C430.62,513.24,428.08,514,425.51,514.63Z" transform="translate(-77.55 -75.94)"/><path class="cls-3" d="M231.55,527.85c7.88-2.37,14.49-7.2,21.49-11.24,3.69-2.13,6.8-1.56,10.24.43,2.94,1.71,5.51,5.73,9.66,2.89,4.78-3.28,5.66-8.41,5.17-13.69-.2-2.13-.49-4.26-.51-6.42a32.49,32.49,0,0,1,4.62,12c1.47,7.18-1.43,13.32-7.92,17.41-5.94,3.75-11.69,2.91-17.26-.84-3.82-2.57-3.83-2.67-.7-7.9C247.85,525,240.18,528.34,231.55,527.85Z" transform="translate(-77.55 -75.94)"/><path class="cls-3" d="M277.63,448.87c9.18-4.1,19-4.89,28.62-3.51,7.16,1,13-.06,18.44-4.5.95,5.63-2,9.4-8.55,10.91-5.23,1.21-10.56.82-15.85,1-3,.11-6.18-.59-8.86.74C285.08,456.68,281,454.06,277.63,448.87Z" transform="translate(-77.55 -75.94)"/><path class="cls-15" d="M253.57,399.6c.45,5.09,3.36,8.62,7,11.93s5.52,7.69,7.27,12.15c-3.75,1.32-6.7.5-8.92-3-2.62-4.11-7.07-5.9-11-8.25-3.79-2.22-5.85-5.25-5.08-9.86.48-2.88,1.87-4.09,4.77-3.24.32.45.67.49,1.05.08Z" transform="translate(-77.55 -75.94)"/><path class="cls-10" d="M354.73,284.6c3.69,2.35,7,4.55,10.38,6.54,2,1.18,2,2.2.4,3.68-8,7.23-16.72,12.9-28.28,12.92C345.62,302,352,294.79,354.73,284.6Z" transform="translate(-77.55 -75.94)"/><path class="cls-3" d="M277.79,493.82c7.44.06,11.7-5.73,11.37-14-.23-5.94-3.36-11.06-3.62-16.88a52,52,0,0,1,9.56,24.63A12,12,0,0,1,293,496.5a10.22,10.22,0,0,1-10,4.33C279,500.31,279.27,496.35,277.79,493.82Z" transform="translate(-77.55 -75.94)"/><path class="cls-13" d="M315.47,304.86c-15.46-.36-27.71-11-28.91-25l6.71.39C297.68,291.15,305.71,298.78,315.47,304.86Z" transform="translate(-77.55 -75.94)"/><path class="cls-13" d="M229.7,264.23c9,1.28,18,2.47,27,3.93,1.53.25,4.67-1,4.34,2.26-.35,3.52-3.09,2.53-5.39,2-7.71-1.63-15.14-1.35-21.94,3.24C232.91,271.69,229.29,268.67,229.7,264.23Z" transform="translate(-77.55 -75.94)"/><path class="cls-13" d="M233,276.07c-1,3.52-3.93,6.06-4.32,10.22-7.64-5.63-9.44-13-9.36-21.27,0-1.76.74-2.39,2.4-2,1.92.41,3.84.85,5.76,1.28A19.38,19.38,0,0,0,233,276.07Z" transform="translate(-77.55 -75.94)"/><path class="cls-4" d="M241.88,431.61c-3,.69-4-.74-4.42-3.62-.93-6.52,2.66-10.92,6.58-15.26l3.45,2.41q1.2,6,2.38,12.1h-.07l-1.27.53C246.61,429.56,242.56,427.66,241.88,431.61Z" transform="translate(-77.55 -75.94)"/><path class="cls-6" d="M418.19,354.47c-1.52-3.47,1.63-5.56,2.8-8,3.62-7.5.58-17.69-4.88-23.32a7.79,7.79,0,0,0-5.87-2.23c-1.59,0-3.35.59-4.7-.86,14.53-3.22,24.71,8,20.54,22.91C424.79,347.6,422.68,351.93,418.19,354.47Z" transform="translate(-77.55 -75.94)"/><path class="cls-3" d="M409.61,136.18c-1.59-8.83-8.42-13.86-14.25-19.59-1.13-1.11-3-1.53-2.76-3.67,5.88,1.34,11,4.44,16.44,6.9,1.85.84,2.13,2.44,2.16,4.13A38.38,38.38,0,0,1,409.61,136.18Z" transform="translate(-77.55 -75.94)"/><path class="cls-6" d="M407.4,315.17c6.18-4.46,7.49-10.34,5.27-17.4-.55-1.77-.36-3.67,1.65-4.74.55,4.72,0,9.57,1.33,14.13,2.59.54,3.49-2.77,5.91-2.12l-.09-.07c-.74,2.34-1.41,4.71-2.25,7C416.85,318.52,413.81,319.32,407.4,315.17Z" transform="translate(-77.55 -75.94)"/><path class="cls-5" d="M382.23,632.8c6.08-3.67,11.67-5.43,17.27-7.11,4.15-1.25,2.54,2.7,3.46,4.23,1.2,2,.1,2.92-2.11,2.9C395.08,632.77,389.31,632.8,382.23,632.8Z" transform="translate(-77.55 -75.94)"/><path class="cls-7" d="M315.47,304.86c-9.76-6.08-17.79-13.71-22.2-24.62a2.83,2.83,0,0,0,1.37-2.36c4.83,12.66,13.69,21.42,25.93,26.93Z" transform="translate(-77.55 -75.94)"/><path class="cls-3" d="M249.87,427.24q-1.19-6-2.38-12.1a23.12,23.12,0,0,1,11.61,9.53A26.3,26.3,0,0,1,249.87,427.24Z" transform="translate(-77.55 -75.94)"/><path class="cls-10" d="M265.86,274.59c3.1-4.84,8.24-5.8,12-2.76a4,4,0,0,1,1.4,4.44c-.51,1.63-2.3.66-3.45.46C272.57,276.16,269.37,275.36,265.86,274.59Z" transform="translate(-77.55 -75.94)"/><path class="cls-13" d="M286.6,279.07c-2.21-6.75-2-7,4.86-5.8l.91.72.16.16C293.63,279.5,289.67,278.75,286.6,279.07Z" transform="translate(-77.55 -75.94)"/><path class="cls-5" d="M511.13,622.76l8.49,3.37C513.11,630.27,513,630.23,511.13,622.76Z" transform="translate(-77.55 -75.94)"/><path class="cls-7" d="M233,276.07a19.38,19.38,0,0,1-5.52-11.81l2.25,0c-.41,4.44,3.21,7.46,4,11.47l-.26.4Z" transform="translate(-77.55 -75.94)"/><path class="cls-8" d="M286.6,279.07c3.07-.32,7,.43,5.93-4.92l1-.14,1.14,3.87a2.83,2.83,0,0,1-1.37,2.36l-6.71-.39A1.72,1.72,0,0,1,286.6,279.07Z" transform="translate(-77.55 -75.94)"/><path class="cls-8" d="M378.31,611.79q0,7.59,0,15.19A32.63,32.63,0,0,1,378.31,611.79Z" transform="translate(-77.55 -75.94)"/><path class="cls-14" d="M326.74,334.7c-2.58.43-4.51-.07-4.62-3.2A9,9,0,0,1,326.74,334.7Z" transform="translate(-77.55 -75.94)"/><path class="cls-6" d="M409.52,357.72c1.3-3.27,4.05-1.17,6.11-1.65A8.73,8.73,0,0,1,409.52,357.72Z" transform="translate(-77.55 -75.94)"/><path class="cls-12" d="M439.44,514.16c-1.32.23-1.73,6-4,.66A5.88,5.88,0,0,1,439.44,514.16Z" transform="translate(-77.55 -75.94)"/><path class="cls-15" d="M264.52,400.08c-1.43,1.26-2.77,1.29-4-.27Z" transform="translate(-77.55 -75.94)"/><path class="cls-11" d="M317.12,432.88c-1,0-2,.1-2.56-1A2.07,2.07,0,0,1,317.12,432.88Z" transform="translate(-77.55 -75.94)"/><path class="cls-15" d="M269.38,423.42c.61-1.26,1.3-1.78,2.25-.28Z" transform="translate(-77.55 -75.94)"/><path class="cls-3" d="M392.6,112.94l-1.15-.61C392,112.21,392.43,112.33,392.6,112.94Z" transform="translate(-77.55 -75.94)"/><path class="cls-3" d="M248.53,427.78l1.27-.53Z" transform="translate(-77.55 -75.94)"/><path class="cls-14" d="M260,399.64l-1.4-.23Z" transform="translate(-77.55 -75.94)"/><path class="cls-6" d="M421.56,305l-.09-.07Z" transform="translate(-77.55 -75.94)"/><path class="cls-6" d="M404.12,313.07c.45.3.91.59,1.37.88C405,313.66,404.57,313.37,404.12,313.07Z" transform="translate(-77.55 -75.94)"/><path class="cls-14" d="M321.86,331.4c-.74.25-1.05-.09-1.13-.79Z" transform="translate(-77.55 -75.94)"/><path class="cls-6" d="M416.84,355.32c-.08-.74.23-1.09,1-1C417.89,355,417.47,355.29,416.84,355.32Z" transform="translate(-77.55 -75.94)"/><path class="cls-3" d="M285.11,462l-.61-.92Z" transform="translate(-77.55 -75.94)"/><path class="cls-6" d="M415.57,356.14a1.07,1.07,0,0,1,1.2-.89C416.68,356,416.14,356.07,415.57,356.14Z" transform="translate(-77.55 -75.94)"/><path class="cls-14" d="M248.59,399.42c-.38.41-.73.37-1.05-.08Z" transform="translate(-77.55 -75.94)"/><path class="cls-8" d="M292.37,274l-.91-.72C292,273.22,292.47,273.24,292.37,274Z" transform="translate(-77.55 -75.94)"/><path class="cls-12" d="M521,623.41c0,.38,0,.77-.07,1.15l-.63-.51A7.08,7.08,0,0,1,521,623.41Z" transform="translate(-77.55 -75.94)"/><path class="cls-8" d="M508.37,737.91c1.16,1.56.37,3.1,0,4.65a22.18,22.18,0,0,1-2.44.05c-3-.24-3.88,2-4.82,4.12a3.87,3.87,0,0,0,1,4.95c2.26,1.9,4.34.83,6.32-.53.93-.65,2.22-1.51,1.61-2.75-1.18-2.39-3.08-.95-4.76-.54a1.93,1.93,0,0,1-2.29-.54c.76-2.82,3.79-2.18,5.5-3.53,4.56,1.27,5.65,4.77,2.5,8.15a11.41,11.41,0,0,1-5.49,3.07c-4.54-.06-7.2-2-6.93-6.89A10.73,10.73,0,0,1,508.37,737.91Z" transform="translate(-77.55 -75.94)"/><path class="cls-8" d="M458.35,752.94a7.56,7.56,0,0,1-5.29-7.51c-.06-5.56,3.85-6.53,8.24-6.84,1.51,1.19,1,2.19-.31,3.09-.65.44-1.81,1.05-.95,1.78,4.76,4-.52,4-2.38,5,.74,1.52,1.56,1.29,2.33,1.11,1.31-.3,3.11-1.71,3.71.26.55,1.79-1.66,2-2.95,2.56A14.66,14.66,0,0,1,458.35,752.94Z" transform="translate(-77.55 -75.94)"/><path class="cls-8" d="M477.62,745.37c-.06,4.45-1.45,6.54-5.86,4.7a9.86,9.86,0,0,0-2.91-.3c-1.13-.1-2.08,2.78-3.11.57-.79-1.69-1.17-4.21.36-5.66,1.26-1.2,2.64.6,3.92,1.23,1.59.8,3.22,3.48,5,1.12,1.35-1.81.71-4.14-1.68-5.44-.81-.44-2-1.1-.88-2.23.8-.83,1.92-.41,2.72.21A6.67,6.67,0,0,1,477.62,745.37Z" transform="translate(-77.55 -75.94)"/><path class="cls-8" d="M492,746.86c.73-2.39.55-4.12-.64-5.69-.54-.73-.88-1.54.13-2a1.58,1.58,0,0,1,2.1.8c1.62,2.87,2.29,6,1.09,9.08-1.55,4-4.58-.21-7,.92-1.14.53-1.89-2-1.95-3.45-.08-1.58,1.27-1.85,2.47-1.46A29.45,29.45,0,0,1,492,746.86Z" transform="translate(-77.55 -75.94)"/><path class="cls-8" d="M480.87,743.45c3.13,2.39,3.18,5,.7,8.21C479.43,748.85,481.74,746,480.87,743.45Z" transform="translate(-77.55 -75.94)"/><path class="cls-8" d="M421.11,753.92a4.24,4.24,0,0,1-1.91-.36c-4.3-2.78-2.87-6.67-1.57-10.23,1.37-3.73,3-7.62,8-7.62a1.88,1.88,0,0,1,1.77,1.53c.38,1.69-1,1.79-2,2.2-4,1.53-6,4.5-6,8.78,0,1.21.22,2.4,1.57,2.81a3.81,3.81,0,0,0,3.75-.73,3,3,0,0,0,.68-1.69,1.66,1.66,0,0,0-1.13-.51c-1.08.18-2.7,1-2.52-.91.15-1.69,1.78-2.75,3.55-3a2.66,2.66,0,0,1,3,2C429.71,749.89,426.24,754,421.11,753.92Z" transform="translate(-77.55 -75.94)"/><path class="cls-8" d="M441.45,748.81c-.57,2.33-1.53,4.11-4.41,2.92-1.29-.53-2.47-.8-3.57.45-.45.52-1.08.52-1.68-.08-2-2,.39-11.24,3.08-12.07s5.28,2.43,4.35,6c-.68,2.61-.39,3.39,2.27,2.83Z" transform="translate(-77.55 -75.94)"/><path class="cls-8" d="M441.49,748.86c.1-1.15.17-2.3.31-3.44.34-2.78,1.61-4.73,4.67-4.85,2.79-.12,4.3,1.49,4.78,4.07.51,2.78.24,5.41-2.61,6.88-3.32,1.71-5-1.18-7.19-2.71Zm2.9-2.37c.23,1.26.31,3.06,2.3,2.91,1.65-.13,2.49-1.56,2.4-3.21-.07-1.4-.77-2.69-2.26-2.84C444.81,743.14,444.53,744.73,444.39,746.49Z" transform="translate(-77.55 -75.94)"/><path class="cls-1" d="M388.43,750.35a29.41,29.41,0,0,1-.59-3.33c-.2-3.25,1.25-2.71,3-1.24C388.77,746.62,390,749.24,388.43,750.35Z" transform="translate(-77.55 -75.94)"/><path class="cls-3" d="M508.46,743.79c-1.71,1.35-4.74.71-5.5,3.53a1.93,1.93,0,0,0,2.29.54c1.68-.41,3.58-1.85,4.76.54.61,1.24-.68,2.1-1.61,2.75-2,1.36-4.06,2.43-6.32.53a3.87,3.87,0,0,1-1-4.95c.94-2.1,1.81-4.36,4.82-4.12a22.18,22.18,0,0,0,2.44-.05Z" transform="translate(-77.55 -75.94)"/><path class="cls-2" d="M418.5,332.55c-2.85-.25-5.53-1.39-8.66.19,3,4.85,5.14,9.9.79,15.24,0-2.52.13-5.05,0-7.56s-.9-5.15-3.35-5.55c-2.08-.34-2.69,2.48-3.68,4.12-.55.91-.53,2.26-3,2.79.93-5.24,3.24-8.84,7.6-10.83C411.81,329.31,415.64,328.48,418.5,332.55Z" transform="translate(-77.55 -75.94)"/><path class="cls-4" d="M444.39,746.49c.14-1.76.42-3.35,2.44-3.14,1.49.15,2.19,1.44,2.26,2.84.09,1.65-.75,3.08-2.4,3.21C444.7,749.55,444.62,747.75,444.39,746.49Z" transform="translate(-77.55 -75.94)"/></svg>